<svg xmlns="http://www.w3.org/2000/svg" version="1.1" xmlns:xlink="http://www.w3.org/1999/xlink" width="512" height="512" x="0" y="0" viewBox="0 0 48 48" style="enable-background:new 0 0 512 512" xml:space="preserve" class=""><rect width="48" height="48" rx="9.6" ry="9.6" fill="#aaaeb0" shape="rounded"></rect><g transform="matrix(0.7,0,0,0.7,7.200000000000003,7.200000000000003)"><g fill="#000"><path d="M32 9a3 3 0 0 1 3-3h4a3 3 0 0 1 3 3v30a3 3 0 0 1-3 3h-4a3 3 0 0 1-3-3zM19 21a3 3 0 0 1 3-3h4a3 3 0 0 1 3 3v18a3 3 0 0 1-3 3h-4a3 3 0 0 1-3-3zM9 30a3 3 0 0 0-3 3v6a3 3 0 0 0 3 3h4a3 3 0 0 0 3-3v-6a3 3 0 0 0-3-3z" fill="#ffffff" opacity="1" data-original="#000000" class=""></path></g></g></svg>