<?xml version="1.0" encoding="UTF-8"?>
<svg xmlns="http://www.w3.org/2000/svg" xmlns:xlink="http://www.w3.org/1999/xlink" width="30px" height="30px" viewBox="0 0 30 30" version="1.1">
<g id="surface1">
<path style=" stroke:none;fill-rule:nonzero;fill:rgb(98.431373%,67.45098%,10.196078%);fill-opacity:1;" d="M 27.363281 3.574219 L 2.636719 3.574219 C 1.183594 3.574219 0 4.757812 0 6.210938 L 0 23.789062 C 0 25.242188 1.183594 26.425781 2.636719 26.425781 L 27.363281 26.425781 C 28.816406 26.425781 30 25.242188 30 23.789062 L 30 6.210938 C 30 4.757812 28.816406 3.574219 27.363281 3.574219 Z M 11.425781 22.910156 C 7.164062 22.910156 3.515625 19.425781 3.515625 15 C 3.515625 10.636719 7.0625 7.089844 11.425781 7.089844 C 15.789062 7.089844 19.335938 10.636719 19.335938 15 C 19.335938 19.460938 15.644531 22.910156 11.425781 22.910156 Z M 25.605469 21.152344 L 21.972656 21.152344 C 21.488281 21.152344 21.09375 20.757812 21.09375 20.273438 C 21.09375 19.789062 21.488281 19.394531 21.972656 19.394531 L 25.605469 19.394531 C 26.089844 19.394531 26.484375 19.789062 26.484375 20.273438 C 26.484375 20.757812 26.089844 21.152344 25.605469 21.152344 Z M 25.605469 17.636719 L 21.972656 17.636719 C 21.488281 17.636719 21.09375 17.242188 21.09375 16.757812 C 21.09375 16.273438 21.488281 15.878906 21.972656 15.878906 L 25.605469 15.878906 C 26.089844 15.878906 26.484375 16.273438 26.484375 16.757812 C 26.484375 17.242188 26.089844 17.636719 25.605469 17.636719 Z M 25.605469 14.121094 L 21.972656 14.121094 C 21.488281 14.121094 21.09375 13.726562 21.09375 13.242188 C 21.09375 12.757812 21.488281 12.363281 21.972656 12.363281 L 25.605469 12.363281 C 26.089844 12.363281 26.484375 12.757812 26.484375 13.242188 C 26.484375 13.726562 26.089844 14.121094 25.605469 14.121094 Z M 25.605469 10.605469 L 21.972656 10.605469 C 21.488281 10.605469 21.09375 10.210938 21.09375 9.726562 C 21.09375 9.242188 21.488281 8.847656 21.972656 8.847656 L 25.605469 8.847656 C 26.089844 8.847656 26.484375 9.242188 26.484375 9.726562 C 26.484375 10.210938 26.089844 10.605469 25.605469 10.605469 Z M 25.605469 10.605469 "/>
<path style=" stroke:none;fill-rule:nonzero;fill:rgb(98.431373%,67.45098%,10.196078%);fill-opacity:1;" d="M 11.425781 8.847656 C 8.035156 8.847656 5.273438 11.609375 5.273438 15 C 5.273438 16.308594 5.691406 17.519531 6.390625 18.519531 C 7.015625 17.621094 7.84375 16.910156 8.820312 16.457031 C 8.261719 15.835938 7.910156 15.019531 7.910156 14.121094 C 7.910156 12.183594 9.488281 10.605469 11.425781 10.605469 C 13.363281 10.605469 14.941406 12.183594 14.941406 14.121094 C 14.941406 15.019531 14.589844 15.835938 14.03125 16.457031 C 15.003906 16.910156 15.835938 17.621094 16.460938 18.519531 C 17.160156 17.519531 17.578125 16.308594 17.578125 15 C 17.578125 11.609375 14.816406 8.847656 11.425781 8.847656 Z M 11.425781 8.847656 "/>
<path style=" stroke:none;fill-rule:nonzero;fill:rgb(98.431373%,67.45098%,10.196078%);fill-opacity:1;" d="M 11.425781 12.363281 C 10.457031 12.363281 9.667969 13.152344 9.667969 14.121094 C 9.667969 15.089844 10.457031 15.878906 11.425781 15.878906 C 12.394531 15.878906 13.183594 15.089844 13.183594 14.121094 C 13.183594 13.152344 12.394531 12.363281 11.425781 12.363281 Z M 11.425781 17.636719 C 9.84375 17.636719 8.414062 18.472656 7.636719 19.808594 C 8.683594 20.636719 9.988281 21.152344 11.425781 21.152344 C 12.863281 21.152344 14.167969 20.636719 15.214844 19.808594 C 14.4375 18.472656 13.007812 17.636719 11.425781 17.636719 Z M 11.425781 17.636719 "/>
</g>
</svg>
