<?xml version="1.0" encoding="UTF-8"?>
<svg xmlns="http://www.w3.org/2000/svg" xmlns:xlink="http://www.w3.org/1999/xlink" width="30px" height="30px" viewBox="0 0 30 30" version="1.1">
<g id="surface1">
<path style=" stroke:none;fill-rule:nonzero;fill:rgb(98.431373%,92.54902%,68.235294%);fill-opacity:1;" d="M 30 15 C 30 23.28125 23.28125 30 15 30 C 6.71875 30 0 23.28125 0 15 C 0 6.71875 6.71875 0 15 0 C 23.28125 0 30 6.71875 30 15 Z M 30 15 "/>
<path style=" stroke:none;fill-rule:nonzero;fill:rgb(92.941176%,63.921569%,10.196078%);fill-opacity:1;" d="M 9.753906 12.746094 L 20.246094 12.746094 C 21.492188 12.746094 22.5 13.757812 22.5 15 C 22.5 16.242188 21.492188 17.253906 20.246094 17.253906 L 9.753906 17.253906 C 8.507812 17.253906 7.5 16.242188 7.5 15 C 7.5 13.757812 8.507812 12.746094 9.753906 12.746094 Z M 9.753906 12.746094 "/>
<path style=" stroke:none;fill-rule:nonzero;fill:rgb(92.941176%,63.921569%,10.196078%);fill-opacity:1;" d="M 15 7.5 C 16.242188 7.5 17.253906 8.507812 17.253906 9.753906 L 17.253906 20.246094 C 17.253906 21.492188 16.242188 22.5 15 22.5 C 13.757812 22.5 12.746094 21.492188 12.746094 20.246094 L 12.746094 9.753906 C 12.746094 8.507812 13.757812 7.5 15 7.5 Z M 15 7.5 "/>
</g>
</svg>
