<?xml version="1.0" encoding="UTF-8"?>
<svg xmlns="http://www.w3.org/2000/svg" xmlns:xlink="http://www.w3.org/1999/xlink" width="30px" height="30px" viewBox="0 0 30 30" version="1.1">
<g id="surface1">
<path style=" stroke:none;fill-rule:nonzero;fill:rgb(98.431373%,67.45098%,10.196078%);fill-opacity:1;" d="M 28.125 9.375 L 28.125 6.5625 C 28.125 5.007812 26.867188 3.75 25.3125 3.75 L 21.5625 3.75 L 21.5625 2.8125 C 21.5625 2.292969 21.144531 1.875 20.625 1.875 C 20.105469 1.875 19.6875 2.292969 19.6875 2.8125 L 19.6875 3.75 L 10.3125 3.75 L 10.3125 2.8125 C 10.3125 2.292969 9.894531 1.875 9.375 1.875 C 8.855469 1.875 8.4375 2.292969 8.4375 2.8125 L 8.4375 3.75 L 4.6875 3.75 C 3.132812 3.75 1.875 5.007812 1.875 6.5625 L 1.875 9.375 Z M 1.875 11.25 L 1.875 25.3125 C 1.875 26.867188 3.132812 28.125 4.6875 28.125 L 25.3125 28.125 C 26.867188 28.125 28.125 26.867188 28.125 25.3125 L 28.125 11.25 Z M 20.300781 16.648438 L 13.738281 22.273438 C 13.359375 22.589844 12.804688 22.570312 12.460938 22.226562 L 9.648438 19.414062 C 9.296875 19.042969 9.296875 18.457031 9.660156 18.097656 C 10.019531 17.734375 10.605469 17.726562 10.976562 18.085938 L 13.175781 20.285156 L 19.082031 15.222656 C 19.335938 14.992188 19.695312 14.921875 20.011719 15.03125 C 20.339844 15.144531 20.574219 15.421875 20.632812 15.753906 C 20.691406 16.09375 20.566406 16.433594 20.300781 16.648438 Z M 20.300781 16.648438 "/>
</g>
</svg>
