<?xml version="1.0" encoding="UTF-8"?>
<svg xmlns="http://www.w3.org/2000/svg" xmlns:xlink="http://www.w3.org/1999/xlink" width="30px" height="30px" viewBox="0 0 30 30" version="1.1">
<g id="surface1">
<path style=" stroke:none;fill-rule:nonzero;fill:rgb(100%,100%,100%);fill-opacity:1;" d="M 15 6.210938 C 11.609375 6.210938 8.847656 8.972656 8.847656 12.363281 C 8.847656 15.753906 11.609375 18.515625 15 18.515625 C 18.390625 18.515625 21.152344 15.753906 21.152344 12.363281 C 21.152344 8.972656 18.390625 6.210938 15 6.210938 Z M 12.363281 9.726562 C 12.851562 9.726562 13.242188 10.117188 13.242188 10.605469 C 13.242188 11.09375 12.851562 11.484375 12.363281 11.484375 C 11.875 11.484375 11.484375 11.09375 11.484375 10.605469 C 11.484375 10.117188 11.875 9.726562 12.363281 9.726562 Z M 18.105469 15.617188 C 17.765625 15.964844 17.207031 15.964844 16.863281 15.617188 C 15.832031 14.589844 14.167969 14.589844 13.136719 15.617188 C 12.792969 15.964844 12.234375 15.964844 11.894531 15.617188 C 11.550781 15.273438 11.550781 14.71875 11.894531 14.375 C 13.605469 12.664062 16.394531 12.664062 18.105469 14.375 C 18.449219 14.71875 18.449219 15.273438 18.105469 15.617188 Z M 17.636719 11.484375 C 17.148438 11.484375 16.757812 11.09375 16.757812 10.605469 C 16.757812 10.117188 17.148438 9.726562 17.636719 9.726562 C 18.125 9.726562 18.515625 10.117188 18.515625 10.605469 C 18.515625 11.09375 18.125 11.484375 17.636719 11.484375 Z M 17.636719 11.484375 "/>
<path style=" stroke:none;fill-rule:nonzero;fill:rgb(100%,100%,100%);fill-opacity:1;" d="M 27.363281 0.9375 L 2.636719 0.9375 C 1.183594 0.9375 0 2.121094 0 3.574219 L 0 21.152344 C 0 22.605469 1.183594 23.789062 2.636719 23.789062 L 5.332031 23.789062 L 5.332031 28.183594 C 5.332031 28.964844 6.28125 29.355469 6.828125 28.800781 L 11.847656 23.789062 L 27.363281 23.789062 C 28.816406 23.789062 30 22.605469 30 21.152344 L 30 3.574219 C 30 2.121094 28.816406 0.9375 27.363281 0.9375 Z M 15 20.273438 C 10.636719 20.273438 7.089844 16.726562 7.089844 12.363281 C 7.089844 8 10.636719 4.453125 15 4.453125 C 19.363281 4.453125 22.910156 8 22.910156 12.363281 C 22.910156 16.726562 19.363281 20.273438 15 20.273438 Z M 15 20.273438 "/>
</g>
</svg>
