<?xml version="1.0" encoding="UTF-8"?>
<svg xmlns="http://www.w3.org/2000/svg" xmlns:xlink="http://www.w3.org/1999/xlink" width="30px" height="30px" viewBox="0 0 30 30" version="1.1">
<g id="surface1">
<path style=" stroke:none;fill-rule:nonzero;fill:rgb(0%,20.784314%,30.588235%);fill-opacity:1;" d="M 22.265625 30 L 0.878906 30 C 0.394531 30 0 29.605469 0 29.121094 L 0 0.878906 C 0 0.394531 0.394531 0 0.878906 0 L 14.355469 0 L 23.144531 8.789062 L 23.144531 29.121094 C 23.144531 29.605469 22.75 30 22.265625 30 Z M 22.265625 30 "/>
<path style=" stroke:none;fill-rule:nonzero;fill:rgb(0%,20.784314%,30.588235%);fill-opacity:1;" d="M 11.570312 0 L 11.570312 30 L 22.265625 30 C 22.75 30 23.144531 29.605469 23.144531 29.121094 L 23.144531 8.789062 L 14.355469 0 Z M 11.570312 0 "/>
<path style=" stroke:none;fill-rule:nonzero;fill:rgb(66.666667%,68.235294%,69.019608%);fill-opacity:1;" d="M 23.144531 8.789062 L 15.234375 8.789062 C 14.75 8.789062 14.355469 8.394531 14.355469 7.910156 L 14.355469 0 Z M 23.144531 8.789062 "/>
<path style=" stroke:none;fill-rule:nonzero;fill:rgb(98.431373%,67.45098%,10.196078%);fill-opacity:1;" d="M 6.0625 10.246094 C 5.578125 10.246094 5.183594 9.851562 5.183594 9.367188 L 5.183594 8.011719 C 5.183594 7.527344 5.578125 7.132812 6.0625 7.132812 C 6.574219 7.132812 6.992188 6.714844 6.992188 6.203125 C 6.992188 5.691406 6.574219 5.273438 6.0625 5.273438 C 5.6875 5.273438 5.347656 5.496094 5.203125 5.839844 C 5.015625 6.289062 4.5 6.496094 4.050781 6.308594 C 3.605469 6.121094 3.394531 5.605469 3.585938 5.15625 C 4.003906 4.160156 4.980469 3.511719 6.0625 3.515625 C 7.542969 3.515625 8.75 4.722656 8.75 6.203125 C 8.75 7.378906 7.992188 8.378906 6.941406 8.746094 L 6.941406 9.367188 C 6.941406 9.851562 6.546875 10.246094 6.0625 10.246094 Z M 6.0625 13.761719 C 5.832031 13.761719 5.605469 13.667969 5.441406 13.503906 C 5.277344 13.339844 5.183594 13.117188 5.183594 12.882812 C 5.183594 12.652344 5.277344 12.425781 5.441406 12.261719 C 5.605469 12.097656 5.832031 12.003906 6.0625 12.003906 C 6.292969 12.003906 6.519531 12.097656 6.683594 12.261719 C 6.847656 12.425781 6.941406 12.652344 6.941406 12.882812 C 6.941406 13.117188 6.847656 13.339844 6.683594 13.503906 C 6.519531 13.667969 6.296875 13.761719 6.0625 13.761719 Z M 6.0625 13.761719 "/>
<path style=" stroke:none;fill-rule:nonzero;fill:rgb(100%,100%,100%);fill-opacity:1;" d="M 18.75 12.363281 L 9.433594 12.363281 C 8.949219 12.363281 8.554688 11.972656 8.554688 11.484375 C 8.554688 11 8.949219 10.605469 9.433594 10.605469 L 18.75 10.605469 C 19.234375 10.605469 19.628906 11 19.628906 11.484375 C 19.628906 11.972656 19.234375 12.363281 18.75 12.363281 Z M 18.75 15.878906 L 9.433594 15.878906 C 8.949219 15.878906 8.554688 15.488281 8.554688 15 C 8.554688 14.515625 8.949219 14.121094 9.433594 14.121094 L 18.75 14.121094 C 19.234375 14.121094 19.628906 14.515625 19.628906 15 C 19.628906 15.488281 19.234375 15.878906 18.75 15.878906 Z M 18.75 19.394531 L 4.539062 19.394531 C 4.054688 19.394531 3.664062 19.003906 3.664062 18.515625 C 3.664062 18.03125 4.054688 17.636719 4.539062 17.636719 L 18.75 17.636719 C 19.234375 17.636719 19.628906 18.03125 19.628906 18.515625 C 19.628906 19.003906 19.234375 19.394531 18.75 19.394531 Z M 18.75 22.910156 L 4.539062 22.910156 C 4.054688 22.910156 3.664062 22.519531 3.664062 22.03125 C 3.664062 21.546875 4.054688 21.152344 4.539062 21.152344 L 18.75 21.152344 C 19.234375 21.152344 19.628906 21.546875 19.628906 22.03125 C 19.628906 22.519531 19.234375 22.910156 18.75 22.910156 Z M 18.75 26.425781 L 4.539062 26.425781 C 4.054688 26.425781 3.664062 26.035156 3.664062 25.546875 C 3.664062 25.0625 4.054688 24.667969 4.539062 24.667969 L 18.75 24.667969 C 19.234375 24.667969 19.628906 25.0625 19.628906 25.546875 C 19.628906 26.035156 19.234375 26.425781 18.75 26.425781 Z M 18.75 26.425781 "/>
<path style=" stroke:none;fill-rule:nonzero;fill:rgb(66.666667%,68.235294%,69.019608%);fill-opacity:1;" d="M 18.75 10.605469 L 11.570312 10.605469 L 11.570312 12.363281 L 18.75 12.363281 C 19.234375 12.363281 19.628906 11.972656 19.628906 11.484375 C 19.628906 11 19.234375 10.605469 18.75 10.605469 Z M 18.75 14.121094 L 11.570312 14.121094 L 11.570312 15.878906 L 18.75 15.878906 C 19.234375 15.878906 19.628906 15.488281 19.628906 15 C 19.628906 14.515625 19.234375 14.121094 18.75 14.121094 Z M 18.75 17.636719 L 11.570312 17.636719 L 11.570312 19.394531 L 18.75 19.394531 C 19.234375 19.394531 19.628906 19.003906 19.628906 18.515625 C 19.628906 18.03125 19.234375 17.636719 18.75 17.636719 Z M 18.75 21.152344 L 11.570312 21.152344 L 11.570312 22.910156 L 18.75 22.910156 C 19.234375 22.910156 19.628906 22.519531 19.628906 22.03125 C 19.628906 21.546875 19.234375 21.152344 18.75 21.152344 Z M 18.75 24.667969 L 11.570312 24.667969 L 11.570312 26.425781 L 18.75 26.425781 C 19.234375 26.425781 19.628906 26.035156 19.628906 25.546875 C 19.628906 25.0625 19.234375 24.667969 18.75 24.667969 Z M 18.75 24.667969 "/>
</g>
</svg>
