<?xml version="1.0" encoding="UTF-8"?>
<svg xmlns="http://www.w3.org/2000/svg" xmlns:xlink="http://www.w3.org/1999/xlink" width="30px" height="30px" viewBox="0 0 30 30" version="1.1">
<g id="surface1">
<path style=" stroke:none;fill-rule:nonzero;fill:rgb(98.431373%,67.45098%,10.196078%);fill-opacity:1;" d="M 6 0 L 24 0 C 27.3125 0 30 2.6875 30 6 L 30 24 C 30 27.3125 27.3125 30 24 30 L 6 30 C 2.6875 30 0 27.3125 0 24 L 0 6 C 0 2.6875 2.6875 0 6 0 Z M 6 0 "/>
<path style=" stroke:none;fill-rule:evenodd;fill:rgb(0%,20.784314%,30.588235%);fill-opacity:1;" d="M 9.132812 9.125 C 9.476562 8.785156 10.027344 8.785156 10.371094 9.125 L 15.003906 13.757812 L 19.632812 9.125 C 19.851562 8.898438 20.179688 8.808594 20.484375 8.886719 C 20.789062 8.96875 21.03125 9.207031 21.109375 9.511719 C 21.191406 9.820312 21.097656 10.144531 20.871094 10.363281 L 16.238281 14.996094 L 20.871094 19.625 C 21.203125 19.96875 21.199219 20.515625 20.859375 20.851562 C 20.523438 21.191406 19.976562 21.195312 19.632812 20.863281 L 15.003906 16.234375 L 10.371094 20.863281 C 10.027344 21.195312 9.480469 21.191406 9.144531 20.851562 C 8.808594 20.515625 8.800781 19.96875 9.132812 19.625 L 13.765625 14.996094 L 9.132812 10.363281 C 8.792969 10.023438 8.792969 9.46875 9.132812 9.125 Z M 9.132812 9.125 "/>
</g>
</svg>
