<?xml version="1.0" encoding="UTF-8"?>
<svg xmlns="http://www.w3.org/2000/svg" xmlns:xlink="http://www.w3.org/1999/xlink" width="30px" height="30px" viewBox="0 0 30 30" version="1.1">
<g id="surface1">
<path style=" stroke:none;fill-rule:nonzero;fill:rgb(0%,20.784314%,30.588235%);fill-opacity:1;" d="M 0 11.25 L 14.445312 20.441406 C 14.609375 20.566406 14.804688 20.625 15 20.625 C 15.195312 20.625 15.390625 20.566406 15.554688 20.441406 L 30 11.25 L 15.5625 0.1875 C 15.230469 -0.0625 14.769531 -0.0625 14.4375 0.1875 Z M 0 11.25 "/>
<path style=" stroke:none;fill-rule:nonzero;fill:rgb(66.666667%,68.235294%,69.019608%);fill-opacity:1;" d="M 24.375 0 L 5.625 0 C 4.59375 0 3.75 0.84375 3.75 1.875 L 3.75 22.5 C 3.75 23.015625 4.171875 23.4375 4.6875 23.4375 L 25.3125 23.4375 C 25.828125 23.4375 26.25 23.015625 26.25 22.5 L 26.25 1.875 C 26.25 0.84375 25.410156 0 24.375 0 Z M 24.375 0 "/>
<path style=" stroke:none;fill-rule:nonzero;fill:rgb(100%,100%,100%);fill-opacity:1;" d="M 8.4375 5.625 L 21.5625 5.625 C 22.078125 5.625 22.5 5.203125 22.5 4.6875 C 22.5 4.171875 22.078125 3.75 21.5625 3.75 L 8.4375 3.75 C 7.921875 3.75 7.5 4.171875 7.5 4.6875 C 7.5 5.203125 7.921875 5.625 8.4375 5.625 Z M 21.5625 7.5 L 8.4375 7.5 C 7.921875 7.5 7.5 7.921875 7.5 8.4375 C 7.5 8.953125 7.921875 9.375 8.4375 9.375 L 21.5625 9.375 C 22.078125 9.375 22.5 8.953125 22.5 8.4375 C 22.5 7.921875 22.078125 7.5 21.5625 7.5 Z M 15.9375 11.25 L 8.4375 11.25 C 7.921875 11.25 7.5 11.671875 7.5 12.1875 C 7.5 12.703125 7.921875 13.125 8.4375 13.125 L 15.9375 13.125 C 16.453125 13.125 16.875 12.703125 16.875 12.1875 C 16.875 11.671875 16.453125 11.25 15.9375 11.25 Z M 15.9375 11.25 "/>
<path style=" stroke:none;fill-rule:nonzero;fill:rgb(98.431373%,67.45098%,10.196078%);fill-opacity:1;" d="M 15.554688 20.441406 C 15.390625 20.566406 15.195312 20.625 15 20.625 C 14.804688 20.625 14.609375 20.566406 14.445312 20.441406 L 0 11.25 L 0 28.125 C 0 29.160156 0.839844 30 1.875 30 L 28.125 30 C 29.160156 30 30 29.160156 30 28.125 L 30 11.25 Z M 15.554688 20.441406 "/>
<path style=" stroke:none;fill-rule:nonzero;fill:rgb(0%,20.784314%,30.588235%);fill-opacity:1;" d="M 28.125 30 L 1.875 30 C 0.824219 30 0 29.175781 0 28.125 C 0 27.828125 0.140625 27.546875 0.382812 27.371094 L 14.445312 17.996094 C 14.609375 17.871094 14.804688 17.8125 15 17.8125 C 15.195312 17.8125 15.390625 17.871094 15.554688 17.996094 L 29.617188 27.371094 C 29.859375 27.546875 30 27.828125 30 28.125 C 30 29.175781 29.175781 30 28.125 30 Z M 28.125 30 "/>
</g>
</svg>
