<svg xmlns="http://www.w3.org/2000/svg" version="1.1" xmlns:xlink="http://www.w3.org/1999/xlink" width="512" height="512" x="0" y="0" viewBox="0 0 512 512" style="enable-background:new 0 0 512 512" xml:space="preserve" class=""><g><path fill="#aaaeb0" d="M115.935 0h243.181c17.6 0 31.867 14.267 31.867 31.867V497c0 8.284-6.716 15-15 15H23.618c-8.284 0-15-6.716-15-15V107.329l71.301-31.307z" opacity="1" data-original="#eaf4ff" class=""></path><path fill="#aaaeb0" d="M100.935 107.317H8.618L115.935 0v92.317c0 8.284-6.716 15-15 15zM375.983 0H199.801v512h176.182c8.284 0 15-6.716 15-15V15c0-8.284-6.716-15-15-15z" opacity="1" data-original="#cde7fc" class=""></path><g fill="#5b6bac"><path d="M310.794 131.029H183.441c-8.284 0-15 6.716-15 15s6.716 15 15 15h127.353c8.284 0 15-6.716 15-15s-6.716-15-15-15zM88.808 221.029h221.986c8.284 0 15-6.716 15-15s-6.716-15-15-15H88.808c-8.284 0-15 6.716-15 15s6.716 15 15 15zM310.794 251.029H88.808c-8.284 0-15 6.716-15 15s6.716 15 15 15h221.986c8.284 0 15-6.716 15-15s-6.716-15-15-15z" fill="#00354e" opacity="1" data-original="#5b6bac" class=""></path></g><path fill="#00354e" d="M310.794 251.029H199.801v30h110.993c8.284 0 15-6.716 15-15s-6.716-15-15-15z" opacity="1" data-original="#203f7c" class=""></path><path fill="#00354e" d="M310.794 311.029H88.808c-8.284 0-15 6.716-15 15s6.716 15 15 15h221.986c8.284 0 15-6.716 15-15s-6.716-15-15-15z" opacity="1" data-original="#5b6bac" class=""></path><path fill="#00354e" d="M323.794 311.029H199.801v30h110.993z" opacity="1" data-original="#203f7c" class=""></path><path fill="#00354e" d="M310.794 371.029H88.808c-8.284 0-15 6.716-15 15s6.716 15 15 15h221.986c8.284 0 15-6.716 15-15s-6.716-15-15-15z" opacity="1" data-original="#5b6bac" class=""></path><path fill="#00354e" d="M310.794 371.029H199.801v30h110.993c8.284 0 15-6.716 15-15s-6.716-15-15-15zM310.794 191.029H199.801v30h110.993c8.284 0 15-6.716 15-15s-6.716-15-15-15z" opacity="1" data-original="#203f7c" class=""></path><circle cx="390.983" cy="399.601" r="112.399" fill="#f02b6c" transform="rotate(-13.34 390.142 399.495)" opacity="1" data-original="#f02b6c" class=""></circle><path fill="#cd175b" d="M390.983 287.203V512c61.977 0 112.398-50.422 112.398-112.398.001-61.977-50.421-112.399-112.398-112.399z" opacity="1" data-original="#cd175b" class=""></path><path fill="#fbac1a" d="m429.634 417.04-17.438-17.438 17.438-17.438c5.858-5.858 5.858-15.355 0-21.213s-15.355-5.858-21.213 0l-17.438 17.438-17.438-17.438c-5.858-5.858-15.355-5.858-21.213 0s-5.858 15.355 0 21.213l17.438 17.438-17.438 17.438c-5.858 5.858-5.858 15.355 0 21.213s15.355 5.858 21.213 0l17.438-17.438 17.438 17.438c5.858 5.858 15.355 5.858 21.213 0s5.858-15.355 0-21.213z" opacity="1" data-original="#ffe278" class=""></path><path fill="#00354e" d="M310.794 131.029H199.801v30h110.993c8.284 0 15-6.716 15-15s-6.716-15-15-15z" opacity="1" data-original="#203f7c" class=""></path><path fill="#fbac1a" d="M429.635 360.95c-5.858-5.858-15.355-5.858-21.213 0l-17.438 17.438v42.427l17.438 17.438c5.858 5.858 15.355 5.858 21.213 0s5.858-15.355 0-21.213l-17.438-17.438 17.438-17.438c5.858-5.859 5.858-15.356 0-21.214z" opacity="1" data-original="#ffb454" class=""></path></g></svg>