<?xml version="1.0" encoding="UTF-8"?>
<svg xmlns="http://www.w3.org/2000/svg" xmlns:xlink="http://www.w3.org/1999/xlink" width="30px" height="30px" viewBox="0 0 30 30" version="1.1">
<g id="surface1">
<path style=" stroke:none;fill-rule:evenodd;fill:rgb(100%,100%,100%);fill-opacity:1;" d="M 3.253906 28.984375 L 26.746094 28.984375 C 26.980469 28.984375 27.214844 28.894531 27.382812 28.722656 C 27.546875 28.554688 27.644531 28.328125 27.644531 28.085938 L 27.644531 14.113281 L 28.507812 14.871094 C 28.886719 15.1875 29.453125 15.148438 29.777344 14.777344 C 30.105469 14.402344 30.066406 13.835938 29.695312 13.507812 L 15.59375 1.238281 C 15.253906 0.9375 14.746094 0.9375 14.40625 1.238281 L 0.304688 13.507812 C -0.0664062 13.835938 -0.105469 14.402344 0.222656 14.777344 C 0.546875 15.15625 1.113281 15.195312 1.492188 14.871094 L 2.355469 14.113281 L 2.355469 28.085938 C 2.355469 28.328125 2.453125 28.554688 2.625 28.722656 C 2.785156 28.894531 3.019531 28.984375 3.253906 28.984375 Z M 14.101562 18.945312 C 14.101562 18.703125 14.191406 18.476562 14.363281 18.308594 C 14.53125 18.136719 14.757812 18.039062 15 18.039062 C 15.496094 18.039062 15.898438 18.445312 15.898438 18.9375 C 15.898438 19.433594 15.496094 19.835938 15 19.835938 C 14.503906 19.835938 14.101562 19.441406 14.101562 18.945312 Z M 8.796875 18.710938 C 10.351562 16.835938 12.546875 15.65625 15 15.65625 C 17.460938 15.65625 19.65625 16.835938 21.203125 18.710938 L 21.394531 18.945312 L 21.203125 19.171875 C 19.648438 21.046875 17.453125 22.226562 15 22.226562 C 12.546875 22.226562 10.351562 21.046875 8.796875 19.171875 L 8.605469 18.945312 Z M 6.757812 19.445312 C 6.550781 19.140625 6.550781 18.738281 6.757812 18.429688 C 7.6875 17.058594 8.933594 15.886719 10.382812 15.070312 C 13.25 13.449219 16.75 13.449219 19.617188 15.070312 C 21.066406 15.886719 22.3125 17.058594 23.242188 18.429688 C 23.449219 18.738281 23.449219 19.140625 23.242188 19.445312 C 22.3125 20.820312 21.066406 22 19.617188 22.804688 C 16.75 24.433594 13.25 24.433594 10.382812 22.804688 C 8.933594 22 7.6875 20.820312 6.757812 19.445312 Z M 6.757812 19.445312 "/>
</g>
</svg>
