<?xml version="1.0" encoding="UTF-8"?>
<svg xmlns="http://www.w3.org/2000/svg" xmlns:xlink="http://www.w3.org/1999/xlink" width="30px" height="30px" viewBox="0 0 30 30" version="1.1">
<g id="surface1">
<path style=" stroke:none;fill-rule:evenodd;fill:rgb(0%,20.784314%,30.588235%);fill-opacity:1;" d="M 3.257812 28.984375 L 26.742188 28.984375 C 26.980469 28.988281 27.210938 28.890625 27.378906 28.722656 C 27.546875 28.554688 27.644531 28.324219 27.644531 28.085938 L 27.644531 14.113281 L 28.511719 14.867188 C 28.886719 15.191406 29.453125 15.148438 29.777344 14.777344 C 30.101562 14.402344 30.0625 13.835938 29.691406 13.507812 L 15.589844 1.234375 C 15.253906 0.941406 14.75 0.941406 14.410156 1.234375 L 0.308594 13.507812 C -0.0664062 13.835938 -0.105469 14.402344 0.21875 14.777344 C 0.546875 15.15625 1.113281 15.195312 1.492188 14.867188 L 2.359375 14.113281 L 2.359375 28.085938 C 2.355469 28.324219 2.453125 28.554688 2.621094 28.722656 C 2.789062 28.890625 3.019531 28.988281 3.257812 28.984375 Z M 14.101562 18.941406 C 14.101562 18.703125 14.195312 18.472656 14.363281 18.304688 C 14.53125 18.136719 14.761719 18.042969 15 18.042969 C 15.496094 18.042969 15.898438 18.445312 15.898438 18.941406 C 15.898438 19.4375 15.496094 19.835938 15 19.839844 C 14.503906 19.839844 14.101562 19.4375 14.101562 18.941406 Z M 8.796875 18.714844 C 10.347656 16.832031 12.542969 15.65625 15 15.65625 C 17.457031 15.65625 19.652344 16.832031 21.203125 18.714844 L 21.394531 18.941406 L 21.203125 19.171875 C 19.648438 21.046875 17.457031 22.226562 15 22.226562 C 12.542969 22.226562 10.351562 21.046875 8.796875 19.171875 L 8.605469 18.941406 Z M 6.757812 19.445312 C 6.546875 19.140625 6.546875 18.738281 6.757812 18.433594 C 7.6875 17.058594 8.933594 15.882812 10.386719 15.074219 C 13.246094 13.449219 16.753906 13.449219 19.613281 15.074219 C 21.066406 15.882812 22.3125 17.058594 23.246094 18.433594 C 23.453125 18.738281 23.453125 19.140625 23.246094 19.449219 C 22.3125 20.820312 21.066406 21.996094 19.613281 22.808594 C 16.753906 24.433594 13.246094 24.433594 10.386719 22.808594 C 8.933594 21.996094 7.6875 20.820312 6.753906 19.445312 Z M 6.757812 19.445312 "/>
</g>
</svg>
