<?xml version="1.0" encoding="UTF-8"?>
<svg xmlns="http://www.w3.org/2000/svg" xmlns:xlink="http://www.w3.org/1999/xlink" width="30px" height="30px" viewBox="0 0 30 30" version="1.1">
<g id="surface1">
<path style=" stroke:none;fill-rule:nonzero;fill:rgb(66.666667%,68.235294%,69.019608%);fill-opacity:1;" d="M 6 0.0117188 L 24 0.0117188 C 27.3125 0.0117188 30 2.699219 30 6.011719 L 30 23.988281 C 30 27.300781 27.3125 29.988281 24 29.988281 L 6 29.988281 C 2.6875 29.988281 0 27.300781 0 23.988281 L 0 6.011719 C 0 2.699219 2.6875 0.0117188 6 0.0117188 Z M 6 0.0117188 "/>
<path style=" stroke:none;fill-rule:nonzero;fill:rgb(100%,100%,100%);fill-opacity:1;" d="M 16.925781 15.023438 L 25.101562 6.847656 C 25.632812 6.316406 25.632812 5.457031 25.101562 4.921875 C 24.570312 4.390625 23.710938 4.390625 23.175781 4.921875 L 15 13.101562 L 6.824219 4.921875 C 6.289062 4.390625 5.429688 4.390625 4.898438 4.921875 C 4.367188 5.457031 4.367188 6.316406 4.898438 6.847656 L 13.074219 15.023438 L 4.898438 23.203125 C 4.367188 23.734375 4.367188 24.59375 4.898438 25.125 C 5.152344 25.382812 5.5 25.523438 5.859375 25.523438 C 6.210938 25.523438 6.558594 25.390625 6.824219 25.125 L 15 16.949219 L 23.175781 25.125 C 23.433594 25.382812 23.777344 25.523438 24.140625 25.523438 C 24.488281 25.523438 24.835938 25.390625 25.101562 25.125 C 25.632812 24.59375 25.632812 23.734375 25.101562 23.203125 Z M 16.925781 15.023438 "/>
</g>
</svg>
