<?xml version="1.0" encoding="UTF-8"?>
<svg xmlns="http://www.w3.org/2000/svg" xmlns:xlink="http://www.w3.org/1999/xlink" width="30px" height="30px" viewBox="0 0 30 30" version="1.1">
<g id="surface1">
<path style=" stroke:none;fill-rule:nonzero;fill:rgb(66.666667%,68.235294%,69.019608%);fill-opacity:1;" d="M 6 0 L 24 0 C 27.3125 0 30 2.6875 30 6 L 30 24 C 30 27.3125 27.3125 30 24 30 L 6 30 C 2.6875 30 0 27.3125 0 24 L 0 6 C 0 2.6875 2.6875 0 6 0 Z M 6 0 "/>
<path style=" stroke:none;fill-rule:nonzero;fill:rgb(100%,100%,100%);fill-opacity:1;" d="M 18.5 8.4375 C 18.5 7.710938 19.085938 7.125 19.8125 7.125 L 21.5625 7.125 C 22.289062 7.125 22.875 7.710938 22.875 8.4375 L 22.875 21.5625 C 22.875 22.289062 22.289062 22.875 21.5625 22.875 L 19.8125 22.875 C 19.085938 22.875 18.5 22.289062 18.5 21.5625 Z M 12.8125 13.6875 C 12.8125 12.960938 13.398438 12.375 14.125 12.375 L 15.875 12.375 C 16.601562 12.375 17.1875 12.960938 17.1875 13.6875 L 17.1875 21.5625 C 17.1875 22.289062 16.601562 22.875 15.875 22.875 L 14.125 22.875 C 13.398438 22.875 12.8125 22.289062 12.8125 21.5625 Z M 8.4375 17.625 C 7.710938 17.625 7.125 18.210938 7.125 18.9375 L 7.125 21.5625 C 7.125 22.289062 7.710938 22.875 8.4375 22.875 L 10.1875 22.875 C 10.914062 22.875 11.5 22.289062 11.5 21.5625 L 11.5 18.9375 C 11.5 18.210938 10.914062 17.625 10.1875 17.625 Z M 8.4375 17.625 "/>
</g>
</svg>
