<?xml version="1.0" encoding="UTF-8"?>
<svg xmlns="http://www.w3.org/2000/svg" xmlns:xlink="http://www.w3.org/1999/xlink" width="30px" height="30px" viewBox="0 0 30 30" version="1.1">
<g id="surface1">
<path style=" stroke:none;fill-rule:nonzero;fill:rgb(66.666667%,68.235294%,69.019608%);fill-opacity:1;" d="M 22.132812 9.632812 L 16.765625 15 L 22.132812 20.367188 C 22.457031 20.679688 22.589844 21.144531 22.476562 21.582031 C 22.359375 22.019531 22.019531 22.359375 21.582031 22.476562 C 21.144531 22.589844 20.679688 22.457031 20.367188 22.132812 L 15 16.765625 L 9.632812 22.132812 C 9.398438 22.367188 9.082031 22.5 8.75 22.5 C 8.417969 22.5 8.101562 22.367188 7.867188 22.132812 C 7.378906 21.644531 7.378906 20.855469 7.867188 20.367188 L 13.234375 15 L 7.867188 9.632812 C 7.542969 9.320312 7.410156 8.855469 7.523438 8.417969 C 7.640625 7.980469 7.980469 7.640625 8.417969 7.523438 C 8.855469 7.410156 9.320312 7.542969 9.632812 7.867188 L 15 13.234375 L 20.367188 7.867188 C 20.679688 7.542969 21.144531 7.410156 21.582031 7.523438 C 22.019531 7.640625 22.359375 7.980469 22.476562 8.417969 C 22.589844 8.855469 22.457031 9.320312 22.132812 9.632812 Z M 22.132812 9.632812 "/>
</g>
</svg>
