<?xml version="1.0" encoding="UTF-8"?>
<svg xmlns="http://www.w3.org/2000/svg" xmlns:xlink="http://www.w3.org/1999/xlink" width="30px" height="30px" viewBox="0 0 30 30" version="1.1">
<g id="surface1">
<path style=" stroke:none;fill-rule:nonzero;fill:rgb(98.431373%,67.45098%,10.196078%);fill-opacity:1;" d="M 14.972656 1.867188 C 15.734375 1.863281 16.425781 2.324219 16.71875 3.027344 C 17.011719 3.730469 16.847656 4.539062 16.308594 5.078125 L 6.367188 14.992188 L 16.308594 24.914062 C 16.945312 25.65625 16.902344 26.765625 16.210938 27.460938 C 15.515625 28.152344 14.40625 28.191406 13.664062 27.558594 L 2.414062 16.308594 C 1.6875 15.574219 1.6875 14.394531 2.414062 13.664062 L 13.664062 2.414062 C 14.011719 2.0625 14.484375 1.867188 14.972656 1.867188 Z M 14.972656 1.867188 "/>
<path style=" stroke:none;fill-rule:nonzero;fill:rgb(98.431373%,67.45098%,10.196078%);fill-opacity:1;" d="M 26.222656 1.867188 C 26.984375 1.863281 27.675781 2.324219 27.96875 3.027344 C 28.261719 3.730469 28.097656 4.539062 27.558594 5.078125 L 17.617188 14.992188 L 27.558594 24.914062 C 28.292969 25.644531 28.292969 26.84375 27.558594 27.578125 C 26.824219 28.308594 25.632812 28.308594 24.894531 27.578125 L 13.644531 16.328125 C 12.917969 15.59375 12.917969 14.414062 13.644531 13.679688 L 24.894531 2.429688 C 25.246094 2.070312 25.722656 1.867188 26.222656 1.867188 Z M 26.222656 1.867188 "/>
</g>
</svg>
