<?xml version="1.0" encoding="UTF-8"?>
<svg xmlns="http://www.w3.org/2000/svg" xmlns:xlink="http://www.w3.org/1999/xlink" width="30px" height="30px" viewBox="0 0 30 30" version="1.1">
<g id="surface1">
<path style=" stroke:none;fill-rule:nonzero;fill:rgb(0%,20.784314%,30.588235%);fill-opacity:1;" d="M 26.945312 10.210938 L 15.695312 2.710938 C 15.273438 2.429688 14.726562 2.429688 14.304688 2.710938 L 3.054688 10.210938 C 2.480469 10.59375 2.328125 11.371094 2.710938 11.945312 C 2.945312 12.285156 3.335938 12.484375 3.75 12.476562 L 3.75 26.25 C 3.75 26.941406 4.308594 27.5 5 27.5 L 25 27.5 C 25.691406 27.5 26.25 26.941406 26.25 26.25 L 26.25 12.5 C 26.800781 12.5 27.285156 12.140625 27.445312 11.613281 C 27.605469 11.085938 27.402344 10.515625 26.945312 10.210938 Z M 20.894531 15.941406 L 18.835938 18.050781 L 19.324219 21.046875 C 19.382812 21.410156 19.277344 21.78125 19.042969 22.058594 C 18.804688 22.339844 18.457031 22.5 18.089844 22.5 C 17.878906 22.5 17.671875 22.445312 17.484375 22.34375 L 15 20.96875 L 12.515625 22.34375 C 12.097656 22.574219 11.582031 22.546875 11.191406 22.273438 C 10.796875 21.996094 10.597656 21.519531 10.675781 21.046875 L 11.164062 18.050781 L 9.105469 15.941406 C 8.777344 15.605469 8.664062 15.117188 8.8125 14.671875 C 8.964844 14.226562 9.347656 13.90625 9.8125 13.832031 L 12.605469 13.40625 L 13.867188 10.71875 C 14.074219 10.28125 14.515625 10 15 10 C 15.484375 10 15.925781 10.28125 16.132812 10.71875 L 17.394531 13.40625 L 20.191406 13.832031 C 20.652344 13.90625 21.039062 14.230469 21.1875 14.671875 C 21.335938 15.117188 21.222656 15.605469 20.894531 15.941406 Z M 20.894531 15.941406 "/>
</g>
</svg>
