<?xml version="1.0" encoding="UTF-8"?>
<svg xmlns="http://www.w3.org/2000/svg" xmlns:xlink="http://www.w3.org/1999/xlink" width="30px" height="30px" viewBox="0 0 30 30" version="1.1">
<g id="surface1">
<path style=" stroke:none;fill-rule:nonzero;fill:rgb(98.431373%,67.45098%,10.196078%);fill-opacity:1;" d="M 26.945312 10.207031 L 15.695312 2.707031 C 15.273438 2.429688 14.726562 2.429688 14.304688 2.707031 L 3.054688 10.207031 C 2.480469 10.59375 2.324219 11.367188 2.707031 11.945312 C 2.941406 12.285156 3.332031 12.488281 3.75 12.472656 L 3.75 26.25 C 3.75 26.941406 4.308594 27.5 5 27.5 L 25 27.5 C 25.691406 27.5 26.25 26.941406 26.25 26.25 L 26.25 12.5 C 26.804688 12.5 27.285156 12.140625 27.449219 11.613281 C 27.605469 11.085938 27.402344 10.515625 26.945312 10.207031 Z M 20.890625 15.945312 L 18.835938 18.054688 L 19.324219 21.046875 C 19.382812 21.414062 19.277344 21.777344 19.042969 22.058594 C 18.800781 22.335938 18.457031 22.5 18.09375 22.5 C 17.878906 22.5 17.667969 22.449219 17.488281 22.34375 L 15 20.96875 L 12.511719 22.34375 C 12.097656 22.578125 11.582031 22.546875 11.191406 22.273438 C 10.800781 22 10.597656 21.523438 10.675781 21.046875 L 11.164062 18.054688 L 9.109375 15.945312 C 8.777344 15.605469 8.664062 15.117188 8.816406 14.675781 C 8.964844 14.226562 9.347656 13.90625 9.8125 13.835938 L 12.605469 13.40625 L 13.867188 10.722656 C 14.074219 10.28125 14.519531 10 15 10 C 15.480469 10 15.925781 10.28125 16.132812 10.722656 L 17.394531 13.40625 L 20.1875 13.835938 C 20.652344 13.90625 21.035156 14.230469 21.183594 14.675781 C 21.335938 15.117188 21.222656 15.605469 20.890625 15.945312 Z M 20.890625 15.945312 "/>
</g>
</svg>
