<svg version="1.2" xmlns="http://www.w3.org/2000/svg" viewBox="0 0 20 20" width="20" height="20">
	<title>New Project</title>
	<style>
		.s0 { fill: #fbac1a } 
	</style>
	<path id="Layer" fill-rule="evenodd" class="s0" d="m12.2 4.7h1.4v0.7h-1.4zm-3.4 2.7h1.4v0.7h-1.4zm2.1 2.7h1.3v0.7h-1.3zm-7.1 4.9q0.1 0.1 0.2 0.3 0.1 0.2 0.1 0.4-0.1 0.2-0.2 0.3l-2.7 2.7c-0.3 0.3-0.7 0.3-1 0-0.3-0.2-0.3-0.7 0-0.9l2.7-2.7q0.1-0.1 0.1-0.1 0.1-0.1 0.1-0.1 0.1 0 0.2 0 0 0 0.1 0 0.2 0 0.4 0.1zm1.2-1.5q0 0.1 0.1 0.1 0 0.1 0.1 0.1 0.1 0.1 0.1 0.2 0.1 0 0.1 0.1l-0.8 0.9q-0.1-0.1-0.1-0.1 0-0.1 0-0.1-0.1 0-0.1-0.1 0 0 0 0-0.1 0-0.1-0.1 0 0-0.1 0 0-0.1 0-0.1-0.1 0-0.1 0z"/>
	<path id="Layer" fill-rule="evenodd" class="s0" d="m11.2 15.6c-4.3 0-7.8-3.5-7.8-7.8 0-4.3 3.5-7.8 7.8-7.8 4.3 0 7.8 3.5 7.8 7.8 0 4.3-3.5 7.8-7.8 7.8zm7.1-7.8c0-3.9-3.2-7.1-7.1-7.1-3.9 0-7.1 3.2-7.1 7.1 0 3.9 3.2 7.1 7.1 7.1 3.9 0 7.1-3.2 7.1-7.1z"/>
	<path id="Layer" fill-rule="evenodd" class="s0" d="m11.2 14.2c-3.6 0-6.5-2.8-6.5-6.4 0-3.6 2.9-6.4 6.5-6.4 3.6 0 6.4 2.8 6.4 6.4 0 3.6-2.8 6.4-6.4 6.4zm4.3-3.4q0.1-0.1 0.1-0.3 0-0.1-0.1-0.2-0.1-0.1-0.2-0.1h-2.4c0-0.4-0.3-0.7-0.7-0.7h-1.3c-0.4 0-0.7 0.3-0.7 0.7h-3.1q-0.1 0-0.2 0.1-0.1 0.1-0.1 0.2 0 0.2 0.1 0.3 0.1 0.1 0.2 0.1h3.1c0 0.3 0.3 0.6 0.7 0.6h1.3c0.4 0 0.7-0.3 0.7-0.6h2.4q0.1 0 0.2-0.1zm0.1-3c0-0.2-0.1-0.3-0.3-0.3h-4.4c0-0.4-0.3-0.7-0.7-0.7h-1.4c-0.4 0-0.7 0.3-0.7 0.7h-1q-0.1 0-0.2 0.1-0.1 0.1-0.1 0.2 0 0.1 0.1 0.2 0.1 0.1 0.2 0.1h1c0 0.4 0.3 0.7 0.7 0.7h1.4c0.4 0 0.7-0.3 0.7-0.7h4.4c0.2 0 0.3-0.1 0.3-0.3zm-0.1-2.5q0.1-0.1 0.1-0.2 0-0.2-0.1-0.3-0.1 0-0.2-0.1h-1.1c0-0.3-0.3-0.6-0.6-0.6h-1.4c-0.4 0-0.7 0.3-0.7 0.6h-4.4q-0.1 0.1-0.2 0.1-0.1 0.1-0.1 0.3 0 0.1 0.1 0.2 0.1 0.1 0.2 0.1h4.4c0 0.4 0.3 0.7 0.7 0.7h1.4c0.3 0 0.6-0.3 0.6-0.7h1.1q0.1 0 0.2-0.1z"/>
</svg>