<?xml version="1.0" encoding="UTF-8"?>
<svg xmlns="http://www.w3.org/2000/svg" xmlns:xlink="http://www.w3.org/1999/xlink" width="30px" height="30px" viewBox="0 0 30 30" version="1.1">
<g id="surface1">
<path style=" stroke:none;fill-rule:evenodd;fill:rgb(100%,100%,100%);fill-opacity:1;" d="M 19.285156 7.507812 L 21.425781 7.507812 L 21.425781 8.574219 L 19.285156 8.574219 Z M 13.925781 11.789062 L 16.074219 11.789062 L 16.074219 12.863281 L 13.925781 12.863281 Z M 17.140625 16.074219 L 19.285156 16.074219 L 19.285156 17.148438 L 17.140625 17.148438 Z M 5.359375 23.574219 C 5.070312 23.574219 4.796875 23.691406 4.597656 23.894531 L 0.3125 28.175781 C -0.105469 28.59375 -0.105469 29.269531 0.3125 29.695312 C 0.734375 30.097656 1.40625 30.097656 1.828125 29.695312 L 6.113281 25.402344 C 6.417969 25.097656 6.511719 24.636719 6.347656 24.238281 C 6.179688 23.835938 5.789062 23.574219 5.359375 23.574219 Z M 6.4375 22.8125 C 6.59375 22.902344 6.746094 23.007812 6.875 23.136719 C 7 23.261719 7.109375 23.40625 7.195312 23.5625 L 8.601562 22.160156 C 8.339844 21.921875 8.085938 21.667969 7.84375 21.40625 Z M 6.4375 22.8125 "/>
<path style=" stroke:none;fill-rule:nonzero;fill:rgb(100%,100%,100%);fill-opacity:1;" d="M 17.675781 0.0078125 C 10.871094 0.0078125 5.359375 5.519531 5.359375 12.324219 C 5.359375 19.132812 10.871094 24.648438 17.675781 24.648438 C 24.484375 24.648438 30 19.132812 30 12.324219 C 29.992188 5.527344 24.480469 0.0117188 17.675781 0.0078125 Z M 17.675781 23.574219 C 11.464844 23.574219 6.425781 18.542969 6.425781 12.324219 C 6.425781 6.113281 11.464844 1.074219 17.675781 1.074219 C 23.894531 1.074219 28.925781 6.113281 28.925781 12.324219 C 28.917969 18.535156 23.886719 23.566406 17.675781 23.574219 Z M 17.675781 23.574219 "/>
<path style=" stroke:none;fill-rule:nonzero;fill:rgb(100%,100%,100%);fill-opacity:1;" d="M 17.675781 2.148438 C 12.058594 2.148438 7.5 6.707031 7.5 12.324219 C 7.5 17.949219 12.058594 22.507812 17.675781 22.507812 C 23.300781 22.507812 27.859375 17.949219 27.859375 12.324219 C 27.851562 6.707031 23.292969 2.15625 17.675781 2.148438 Z M 24.109375 17.148438 L 20.359375 17.148438 C 20.359375 17.742188 19.875 18.222656 19.285156 18.222656 L 17.140625 18.222656 C 16.550781 18.222656 16.074219 17.742188 16.074219 17.148438 L 11.25 17.148438 C 10.957031 17.148438 10.714844 16.90625 10.714844 16.613281 C 10.714844 16.316406 10.957031 16.074219 11.25 16.074219 L 16.074219 16.074219 C 16.074219 15.480469 16.550781 15.007812 17.140625 15.007812 L 19.285156 15.007812 C 19.875 15.007812 20.359375 15.480469 20.359375 16.074219 L 24.109375 16.074219 C 24.402344 16.074219 24.640625 16.316406 24.640625 16.613281 C 24.640625 16.90625 24.402344 17.148438 24.109375 17.148438 Z M 24.109375 12.863281 L 17.140625 12.863281 C 17.140625 13.457031 16.660156 13.933594 16.074219 13.933594 L 13.925781 13.933594 C 13.339844 13.933594 12.859375 13.457031 12.859375 12.863281 L 11.25 12.863281 C 10.957031 12.863281 10.714844 12.625 10.714844 12.324219 C 10.714844 12.03125 10.957031 11.789062 11.25 11.789062 L 12.859375 11.789062 C 12.859375 11.199219 13.339844 10.714844 13.925781 10.714844 L 16.074219 10.714844 C 16.660156 10.714844 17.140625 11.199219 17.140625 11.789062 L 24.109375 11.789062 C 24.402344 11.789062 24.640625 12.03125 24.640625 12.324219 C 24.640625 12.625 24.402344 12.863281 24.109375 12.863281 Z M 24.109375 8.574219 L 22.5 8.574219 C 22.5 9.167969 22.019531 9.648438 21.425781 9.648438 L 19.285156 9.648438 C 18.691406 9.648438 18.214844 9.167969 18.214844 8.574219 L 11.25 8.574219 C 10.957031 8.574219 10.714844 8.339844 10.714844 8.039062 C 10.714844 7.746094 10.957031 7.507812 11.25 7.507812 L 18.214844 7.507812 C 18.214844 6.914062 18.691406 6.433594 19.285156 6.433594 L 21.425781 6.433594 C 22.019531 6.433594 22.5 6.914062 22.5 7.507812 L 24.109375 7.507812 C 24.402344 7.507812 24.640625 7.746094 24.640625 8.039062 C 24.640625 8.339844 24.402344 8.574219 24.109375 8.574219 Z M 24.109375 8.574219 "/>
</g>
</svg>
