<?xml version="1.0" encoding="UTF-8"?>
<svg xmlns="http://www.w3.org/2000/svg" xmlns:xlink="http://www.w3.org/1999/xlink" width="30px" height="30px" viewBox="0 0 30 30" version="1.1">
<g id="surface1">
<path style=" stroke:none;fill-rule:evenodd;fill:rgb(0%,20.784314%,30.588235%);fill-opacity:1;" d="M 19.285156 7.503906 L 21.429688 7.503906 L 21.429688 8.578125 L 19.285156 8.578125 Z M 13.929688 11.789062 L 16.070312 11.789062 L 16.070312 12.863281 L 13.929688 12.863281 Z M 17.144531 16.078125 L 19.285156 16.078125 L 19.285156 17.148438 L 17.144531 17.148438 Z M 5.355469 23.578125 C 5.074219 23.574219 4.800781 23.6875 4.597656 23.890625 L 0.3125 28.175781 C -0.105469 28.59375 -0.105469 29.273438 0.3125 29.691406 C 0.738281 30.097656 1.40625 30.097656 1.828125 29.691406 L 6.113281 25.40625 C 6.421875 25.097656 6.511719 24.636719 6.347656 24.238281 C 6.179688 23.835938 5.789062 23.578125 5.355469 23.578125 Z M 6.4375 22.8125 C 6.597656 22.902344 6.742188 23.007812 6.871094 23.136719 C 6.996094 23.265625 7.105469 23.40625 7.195312 23.5625 L 8.597656 22.160156 C 8.335938 21.921875 8.085938 21.667969 7.84375 21.40625 Z M 6.4375 22.8125 "/>
<path style=" stroke:none;fill-rule:nonzero;fill:rgb(0%,20.784314%,30.588235%);fill-opacity:1;" d="M 17.679688 0.00390625 C 10.875 0.00390625 5.355469 5.523438 5.355469 12.328125 C 5.355469 19.132812 10.875 24.648438 17.679688 24.648438 C 24.484375 24.648438 30 19.132812 30 12.328125 C 29.992188 5.523438 24.480469 0.0117188 17.679688 0.00390625 Z M 17.679688 23.578125 C 11.464844 23.578125 6.429688 18.539062 6.429688 12.328125 C 6.429688 6.113281 11.464844 1.078125 17.679688 1.078125 C 23.890625 1.078125 28.929688 6.113281 28.929688 12.328125 C 28.921875 18.535156 23.890625 23.570312 17.679688 23.578125 Z M 17.679688 23.578125 "/>
<path style=" stroke:none;fill-rule:nonzero;fill:rgb(0%,20.784314%,30.588235%);fill-opacity:1;" d="M 17.679688 2.148438 C 12.058594 2.148438 7.5 6.703125 7.5 12.328125 C 7.5 17.949219 12.058594 22.503906 17.679688 22.503906 C 23.300781 22.503906 27.855469 17.949219 27.855469 12.328125 C 27.851562 6.707031 23.296875 2.152344 17.679688 2.148438 Z M 24.105469 17.148438 L 20.355469 17.148438 C 20.355469 17.738281 19.878906 18.21875 19.285156 18.21875 L 17.144531 18.21875 C 16.550781 18.21875 16.070312 17.738281 16.070312 17.148438 L 11.25 17.148438 C 10.953125 17.148438 10.714844 16.90625 10.714844 16.613281 C 10.714844 16.316406 10.953125 16.078125 11.25 16.078125 L 16.070312 16.078125 C 16.070312 15.484375 16.550781 15.003906 17.144531 15.003906 L 19.285156 15.003906 C 19.878906 15.003906 20.355469 15.484375 20.355469 16.078125 L 24.105469 16.078125 C 24.402344 16.078125 24.644531 16.316406 24.644531 16.613281 C 24.644531 16.90625 24.402344 17.148438 24.105469 17.148438 Z M 24.105469 12.863281 L 17.144531 12.863281 C 17.144531 13.453125 16.664062 13.933594 16.070312 13.933594 L 13.929688 13.933594 C 13.335938 13.933594 12.855469 13.453125 12.855469 12.863281 L 11.25 12.863281 C 10.953125 12.863281 10.714844 12.621094 10.714844 12.328125 C 10.714844 12.03125 10.953125 11.789062 11.25 11.789062 L 12.855469 11.789062 C 12.855469 11.199219 13.335938 10.71875 13.929688 10.71875 L 16.070312 10.71875 C 16.664062 10.71875 17.144531 11.199219 17.144531 11.789062 L 24.105469 11.789062 C 24.402344 11.789062 24.644531 12.03125 24.644531 12.328125 C 24.644531 12.621094 24.402344 12.863281 24.105469 12.863281 Z M 24.105469 8.578125 L 22.5 8.578125 C 22.5 9.167969 22.019531 9.648438 21.429688 9.648438 L 19.285156 9.648438 C 18.695312 9.648438 18.214844 9.167969 18.214844 8.578125 L 11.25 8.578125 C 10.953125 8.578125 10.714844 8.335938 10.714844 8.039062 C 10.714844 7.746094 10.953125 7.503906 11.25 7.503906 L 18.214844 7.503906 C 18.214844 6.914062 18.695312 6.433594 19.285156 6.433594 L 21.429688 6.433594 C 22.019531 6.433594 22.5 6.914062 22.5 7.503906 L 24.105469 7.503906 C 24.402344 7.503906 24.644531 7.746094 24.644531 8.039062 C 24.644531 8.335938 24.402344 8.578125 24.105469 8.578125 Z M 24.105469 8.578125 "/>
</g>
</svg>
