<?xml version="1.0" encoding="UTF-8"?>
<svg xmlns="http://www.w3.org/2000/svg" xmlns:xlink="http://www.w3.org/1999/xlink" width="30px" height="30px" viewBox="0 0 30 30" version="1.1">
<g id="surface1">
<path style=" stroke:none;fill-rule:nonzero;fill:rgb(100%,100%,100%);fill-opacity:1;" d="M 5 10 L 25 10 C 27.761719 10 30 12.238281 30 15 C 30 17.761719 27.761719 20 25 20 L 5 20 C 2.238281 20 0 17.761719 0 15 C 0 12.238281 2.238281 10 5 10 Z M 5 10 "/>
<path style=" stroke:none;fill-rule:nonzero;fill:rgb(100%,100%,100%);fill-opacity:1;" d="M 15 0 C 17.761719 0 20 2.238281 20 5 L 20 25 C 20 27.761719 17.761719 30 15 30 C 12.238281 30 10 27.761719 10 25 L 10 5 C 10 2.238281 12.238281 0 15 0 Z M 15 0 "/>
</g>
</svg>
