<?xml version="1.0" encoding="UTF-8"?>
<svg xmlns="http://www.w3.org/2000/svg" xmlns:xlink="http://www.w3.org/1999/xlink" width="30px" height="30px" viewBox="0 0 30 30" version="1.1">
<g id="surface1">
<path style=" stroke:none;fill-rule:nonzero;fill:rgb(100%,100%,100%);fill-opacity:1;" d="M 25.3125 1.875 L 4.6875 1.875 C 3.136719 1.875 1.875 3.136719 1.875 4.6875 L 1.875 25.3125 C 1.875 26.125 2.226562 26.882812 2.820312 27.410156 L 2.8125 27.5 L 3.367188 27.800781 C 3.761719 28.015625 4.21875 28.125 4.6875 28.125 L 25.3125 28.125 C 25.78125 28.125 26.238281 28.015625 26.632812 27.800781 L 27.1875 27.5 L 27.179688 27.410156 C 27.78125 26.875 28.125 26.113281 28.125 25.3125 L 28.125 4.6875 C 28.125 3.136719 26.863281 1.875 25.3125 1.875 Z M 4.6875 3.75 L 25.3125 3.75 C 25.828125 3.75 26.25 4.171875 26.25 4.6875 L 26.25 23.425781 C 24.894531 20.167969 22.1875 17.664062 18.835938 16.5625 C 20.546875 15.332031 21.5625 13.351562 21.5625 11.25 C 21.5625 7.628906 18.621094 4.6875 15 4.6875 C 11.378906 4.6875 8.4375 7.628906 8.4375 11.25 C 8.4375 13.351562 9.453125 15.332031 11.164062 16.5625 C 7.8125 17.664062 5.105469 20.167969 3.75 23.425781 L 3.75 4.6875 C 3.75 4.171875 4.171875 3.75 4.6875 3.75 Z M 10.3125 11.25 C 10.3125 8.664062 12.414062 6.5625 15 6.5625 C 17.585938 6.5625 19.6875 8.664062 19.6875 11.25 C 19.6875 13.835938 17.585938 15.9375 15 15.9375 C 12.414062 15.9375 10.3125 13.835938 10.3125 11.25 Z M 4.855469 26.25 C 5.742188 21.386719 9.96875 17.8125 15 17.8125 C 20.03125 17.8125 24.257812 21.386719 25.144531 26.25 Z M 4.855469 26.25 "/>
</g>
</svg>
