<?xml version="1.0" encoding="UTF-8"?>
<svg xmlns="http://www.w3.org/2000/svg" xmlns:xlink="http://www.w3.org/1999/xlink" width="30px" height="30px" viewBox="0 0 30 30" version="1.1">
<g id="surface1">
<path style=" stroke:none;fill-rule:nonzero;fill:rgb(98.431373%,67.45098%,10.196078%);fill-opacity:1;" d="M 15.007812 28.125 C 14.246094 28.132812 13.554688 27.675781 13.261719 26.972656 C 12.96875 26.269531 13.132812 25.457031 13.671875 24.921875 L 23.613281 15 L 13.671875 5.085938 C 13.035156 4.335938 13.078125 3.230469 13.769531 2.539062 C 14.464844 1.84375 15.574219 1.804688 16.316406 2.441406 L 27.566406 13.691406 C 28.292969 14.421875 28.292969 15.597656 27.566406 16.335938 L 16.316406 27.585938 C 15.96875 27.929688 15.496094 28.125 15.007812 28.125 Z M 15.007812 28.125 "/>
<path style=" stroke:none;fill-rule:nonzero;fill:rgb(98.431373%,67.45098%,10.196078%);fill-opacity:1;" d="M 3.757812 28.125 C 2.996094 28.132812 2.304688 27.675781 2.011719 26.972656 C 1.71875 26.269531 1.882812 25.457031 2.421875 24.921875 L 12.363281 15 L 2.421875 5.085938 C 1.6875 4.347656 1.6875 3.15625 2.421875 2.421875 C 3.15625 1.6875 4.347656 1.6875 5.085938 2.421875 L 16.335938 13.671875 C 17.0625 14.402344 17.0625 15.578125 16.335938 16.316406 L 5.085938 27.566406 C 4.734375 27.921875 4.257812 28.125 3.757812 28.125 Z M 3.757812 28.125 "/>
</g>
</svg>
