<?xml version="1.0" encoding="UTF-8"?>
<svg xmlns="http://www.w3.org/2000/svg" xmlns:xlink="http://www.w3.org/1999/xlink" width="30px" height="30px" viewBox="0 0 30 30" version="1.1">
<g id="surface1">
<path style=" stroke:none;fill-rule:nonzero;fill:rgb(0%,20.784314%,30.588235%);fill-opacity:1;" d="M 2.066406 27 C 2.070312 28.65625 3.410156 29.996094 5.066406 30 L 15.28125 30 C 16.9375 29.996094 18.28125 28.65625 18.28125 27 L 18.28125 24.003906 L 2.066406 24.003906 Z M 8.597656 26.59375 L 11.75 26.59375 C 11.972656 26.59375 12.15625 26.777344 12.15625 27 C 12.15625 27.226562 11.972656 27.40625 11.75 27.40625 L 8.597656 27.40625 C 8.375 27.40625 8.191406 27.226562 8.191406 27 C 8.191406 26.777344 8.375 26.59375 8.597656 26.59375 Z M 10.257812 11.273438 C 8.878906 11.273438 7.765625 12.390625 7.765625 13.769531 C 7.765625 15.144531 8.878906 16.261719 10.257812 16.261719 C 11.632812 16.261719 12.75 15.144531 12.75 13.769531 C 12.75 12.390625 11.632812 11.277344 10.257812 11.273438 Z M 10.175781 18.953125 C 7.742188 18.957031 5.691406 20.773438 5.398438 23.1875 L 14.953125 23.1875 C 14.65625 20.773438 12.605469 18.957031 10.175781 18.953125 Z M 2.066406 3.160156 L 2.066406 3.351562 L 14.625 3.351562 C 15.164062 2.28125 15.953125 1.355469 16.921875 0.648438 C 16.433594 0.332031 15.867188 0.160156 15.285156 0.160156 L 5.066406 0.160156 C 3.410156 0.164062 2.070312 1.503906 2.066406 3.160156 Z M 21.398438 0 C 18.59375 0 16.078125 1.730469 15.074219 4.355469 C 14.074219 6.976562 14.792969 9.945312 16.886719 11.816406 C 17.015625 11.933594 17.058594 12.121094 16.988281 12.285156 L 15.585938 15.4375 L 19.183594 13.3125 C 19.277344 13.253906 19.394531 13.238281 19.503906 13.273438 C 22.046875 14.015625 24.789062 13.203125 26.523438 11.199219 C 28.253906 9.195312 28.660156 6.363281 27.558594 3.953125 C 26.457031 1.546875 24.050781 0 21.398438 0 Z M 26.53125 5.710938 C 26.476562 5.878906 26.320312 5.992188 26.144531 5.992188 L 25.164062 5.992188 L 25.164062 11.191406 C 25.164062 11.414062 24.980469 11.597656 24.753906 11.597656 L 18.042969 11.597656 C 17.820312 11.597656 17.636719 11.414062 17.636719 11.191406 L 17.636719 5.992188 L 16.652344 5.992188 C 16.476562 5.992188 16.320312 5.878906 16.265625 5.710938 C 16.210938 5.542969 16.273438 5.359375 16.414062 5.253906 L 21.160156 1.800781 C 21.304688 1.695312 21.496094 1.695312 21.640625 1.800781 L 24.417969 3.820312 L 24.417969 3.101562 C 24.417969 2.875 24.597656 2.695312 24.824219 2.695312 C 25.046875 2.695312 25.230469 2.875 25.230469 3.101562 L 25.230469 4.414062 L 26.386719 5.253906 C 26.527344 5.359375 26.585938 5.542969 26.53125 5.710938 Z M 26.53125 5.710938 "/>
<path style=" stroke:none;fill-rule:nonzero;fill:rgb(0%,20.784314%,30.588235%);fill-opacity:1;" d="M 17.902344 5.175781 L 18.042969 5.175781 C 18.269531 5.175781 18.449219 5.359375 18.449219 5.582031 L 18.449219 10.78125 L 19.875 10.78125 L 19.875 9.253906 C 19.875 9.027344 20.058594 8.847656 20.28125 8.847656 L 22.515625 8.847656 C 22.742188 8.847656 22.921875 9.027344 22.921875 9.253906 L 22.921875 10.78125 L 24.347656 10.78125 L 24.347656 5.582031 C 24.347656 5.359375 24.53125 5.175781 24.753906 5.175781 L 24.894531 5.175781 L 21.398438 2.632812 Z M 17.902344 5.175781 "/>
<path style=" stroke:none;fill-rule:nonzero;fill:rgb(0%,20.784314%,30.588235%);fill-opacity:1;" d="M 20.6875 9.660156 L 22.109375 9.660156 L 22.109375 10.78125 L 20.6875 10.78125 Z M 14.699219 16.84375 C 14.5625 16.84375 14.433594 16.773438 14.359375 16.660156 C 14.285156 16.542969 14.273438 16.398438 14.328125 16.273438 L 16.125 12.21875 C 13.976562 10.132812 13.25 6.980469 14.273438 4.164062 L 2.066406 4.164062 L 2.066406 23.1875 L 4.578125 23.1875 C 4.875 20.320312 7.289062 18.140625 10.175781 18.140625 C 13.058594 18.140625 15.476562 20.320312 15.773438 23.1875 L 18.28125 23.1875 L 18.28125 14.789062 L 14.90625 16.785156 C 14.84375 16.824219 14.773438 16.84375 14.699219 16.84375 Z M 10.257812 17.074219 C 8.429688 17.074219 6.949219 15.59375 6.949219 13.769531 C 6.949219 11.941406 8.429688 10.460938 10.257812 10.460938 C 12.082031 10.460938 13.566406 11.941406 13.5625 13.769531 C 13.5625 15.59375 12.082031 17.074219 10.257812 17.074219 Z M 10.257812 17.074219 "/>
</g>
</svg>
