<?xml version="1.0" encoding="UTF-8"?>
<svg xmlns="http://www.w3.org/2000/svg" xmlns:xlink="http://www.w3.org/1999/xlink" width="30px" height="30px" viewBox="0 0 30 30" version="1.1">
<g id="surface1">
<path style=" stroke:none;fill-rule:nonzero;fill:rgb(73.72549%,73.72549%,79.607843%);fill-opacity:1;" d="M 23.535156 20.8125 C 25.242188 18.59375 26.152344 15.871094 26.132812 13.078125 C 26.152344 9.621094 24.792969 6.300781 22.355469 3.847656 C 19.921875 1.394531 16.613281 0.0078125 13.15625 0 C 5.925781 0.0078125 0.0507812 5.847656 0 13.078125 C 0.0507812 20.3125 5.925781 26.144531 13.15625 26.152344 C 15.96875 26.203125 18.71875 25.292969 20.945312 23.574219 L 26.503906 29.101562 C 26.84375 29.453125 27.3125 29.65625 27.800781 29.65625 C 28.289062 29.65625 28.757812 29.453125 29.09375 29.101562 C 29.453125 28.761719 29.65625 28.300781 29.65625 27.8125 C 29.65625 27.324219 29.453125 26.855469 29.09375 26.523438 Z M 13.15625 22.285156 C 10.683594 22.324219 8.292969 21.375 6.515625 19.648438 C 4.746094 17.917969 3.730469 15.554688 3.710938 13.078125 C 3.710938 7.859375 7.9375 3.625 13.15625 3.625 C 18.378906 3.625 22.609375 7.859375 22.609375 13.078125 C 22.585938 15.554688 21.574219 17.917969 19.796875 19.648438 C 18.027344 21.375 15.632812 22.324219 13.15625 22.285156 Z M 13.15625 22.285156 "/>
</g>
</svg>
