<?xml version="1.0" encoding="UTF-8"?>
<svg xmlns="http://www.w3.org/2000/svg" xmlns:xlink="http://www.w3.org/1999/xlink" width="30px" height="30px" viewBox="0 0 30 30" version="1.1">
<g id="surface1">
<path style=" stroke:none;fill-rule:nonzero;fill:rgb(98.431373%,67.45098%,10.196078%);fill-opacity:1;" d="M 2.0625 27 C 2.070312 28.660156 3.410156 30 5.066406 30 L 15.28125 30 C 16.941406 30 18.28125 28.660156 18.28125 27 L 18.28125 24.003906 L 2.0625 24.003906 Z M 8.601562 26.59375 L 11.75 26.59375 C 11.972656 26.59375 12.15625 26.777344 12.15625 27 C 12.15625 27.226562 11.972656 27.410156 11.75 27.410156 L 8.601562 27.410156 C 8.371094 27.410156 8.191406 27.226562 8.191406 27 C 8.191406 26.777344 8.371094 26.59375 8.601562 26.59375 Z M 10.261719 11.277344 C 8.878906 11.277344 7.765625 12.390625 7.765625 13.769531 C 7.765625 15.144531 8.878906 16.261719 10.261719 16.261719 C 11.632812 16.261719 12.753906 15.144531 12.753906 13.769531 C 12.746094 12.390625 11.632812 11.277344 10.261719 11.277344 Z M 10.175781 18.953125 C 7.742188 18.957031 5.691406 20.773438 5.398438 23.191406 L 14.953125 23.191406 C 14.65625 20.773438 12.605469 18.957031 10.175781 18.953125 Z M 2.0625 3.15625 L 2.0625 3.351562 L 14.621094 3.351562 C 15.164062 2.277344 15.949219 1.355469 16.921875 0.652344 C 16.433594 0.332031 15.867188 0.164062 15.285156 0.164062 L 5.066406 0.164062 C 3.410156 0.164062 2.070312 1.503906 2.0625 3.15625 Z M 21.398438 0 C 18.59375 0 16.074219 1.730469 15.070312 4.355469 C 14.074219 6.980469 14.792969 9.949219 16.886719 11.816406 C 17.019531 11.933594 17.058594 12.121094 16.984375 12.285156 L 15.585938 15.4375 L 19.179688 13.3125 C 19.277344 13.253906 19.394531 13.242188 19.503906 13.273438 C 22.042969 14.015625 24.792969 13.203125 26.523438 11.199219 C 28.253906 9.191406 28.660156 6.367188 27.558594 3.953125 C 26.457031 1.542969 24.050781 0 21.398438 0 Z M 26.53125 5.710938 C 26.476562 5.878906 26.320312 5.988281 26.144531 5.988281 L 25.164062 5.988281 L 25.164062 11.191406 C 25.164062 11.414062 24.980469 11.59375 24.753906 11.59375 L 18.046875 11.59375 C 17.820312 11.59375 17.636719 11.414062 17.636719 11.191406 L 17.636719 5.988281 L 16.652344 5.988281 C 16.476562 5.988281 16.320312 5.878906 16.269531 5.710938 C 16.210938 5.539062 16.269531 5.359375 16.414062 5.253906 L 21.160156 1.796875 C 21.300781 1.691406 21.496094 1.691406 21.640625 1.796875 L 24.414062 3.820312 L 24.414062 3.097656 C 24.414062 2.878906 24.597656 2.695312 24.824219 2.695312 C 25.046875 2.695312 25.226562 2.878906 25.226562 3.097656 L 25.226562 4.414062 L 26.386719 5.253906 C 26.53125 5.359375 26.589844 5.539062 26.53125 5.710938 Z M 26.53125 5.710938 "/>
<path style=" stroke:none;fill-rule:nonzero;fill:rgb(98.431373%,67.45098%,10.196078%);fill-opacity:1;" d="M 17.902344 5.175781 L 18.046875 5.175781 C 18.269531 5.175781 18.449219 5.359375 18.449219 5.585938 L 18.449219 10.78125 L 19.875 10.78125 L 19.875 9.25 C 19.875 9.03125 20.058594 8.847656 20.28125 8.847656 L 22.519531 8.847656 C 22.742188 8.847656 22.921875 9.03125 22.921875 9.25 L 22.921875 10.78125 L 24.347656 10.78125 L 24.347656 5.585938 C 24.347656 5.359375 24.53125 5.175781 24.753906 5.175781 L 24.894531 5.175781 L 21.398438 2.628906 Z M 17.902344 5.175781 "/>
<path style=" stroke:none;fill-rule:nonzero;fill:rgb(98.431373%,67.45098%,10.196078%);fill-opacity:1;" d="M 20.691406 9.660156 L 22.109375 9.660156 L 22.109375 10.78125 L 20.691406 10.78125 Z M 14.699219 16.84375 C 14.5625 16.84375 14.433594 16.769531 14.363281 16.660156 C 14.285156 16.542969 14.269531 16.398438 14.328125 16.269531 L 16.125 12.21875 C 13.976562 10.136719 13.25 6.980469 14.269531 4.160156 L 2.0625 4.160156 L 2.0625 23.191406 L 4.578125 23.191406 C 4.875 20.320312 7.292969 18.136719 10.175781 18.136719 C 13.058594 18.136719 15.476562 20.320312 15.773438 23.191406 L 18.28125 23.191406 L 18.28125 14.792969 L 14.910156 16.785156 C 14.84375 16.824219 14.773438 16.84375 14.699219 16.84375 Z M 10.261719 17.078125 C 8.429688 17.078125 6.953125 15.59375 6.953125 13.769531 C 6.953125 11.941406 8.429688 10.460938 10.261719 10.460938 C 12.082031 10.460938 13.566406 11.941406 13.5625 13.769531 C 13.5625 15.59375 12.082031 17.070312 10.261719 17.078125 Z M 10.261719 17.078125 "/>
</g>
</svg>
