<?xml version="1.0" encoding="UTF-8"?>
<svg xmlns="http://www.w3.org/2000/svg" xmlns:xlink="http://www.w3.org/1999/xlink" width="30px" height="30px" viewBox="0 0 30 30" version="1.1">
<g id="surface1">
<path style=" stroke:none;fill-rule:nonzero;fill:rgb(66.666667%,68.235294%,69.019608%);fill-opacity:1;" d="M 8.4375 0.9375 L 21.5625 0.9375 C 22.597656 0.9375 23.4375 1.777344 23.4375 2.8125 L 23.4375 27.1875 C 23.4375 28.222656 22.597656 29.0625 21.5625 29.0625 L 8.4375 29.0625 C 7.402344 29.0625 6.5625 28.222656 6.5625 27.1875 L 6.5625 2.8125 C 6.5625 1.777344 7.402344 0.9375 8.4375 0.9375 Z M 8.4375 0.9375 "/>
<path style=" stroke:none;fill-rule:nonzero;fill:rgb(0%,20.784314%,30.588235%);fill-opacity:1;" d="M 21.5625 0.117188 L 8.4375 0.117188 C 6.949219 0.117188 5.742188 1.324219 5.742188 2.8125 L 5.742188 27.1875 C 5.742188 28.675781 6.949219 29.882812 8.4375 29.882812 L 21.5625 29.882812 C 23.050781 29.882812 24.257812 28.675781 24.257812 27.1875 L 24.257812 2.8125 C 24.257812 1.324219 23.050781 0.117188 21.5625 0.117188 Z M 8.4375 1.757812 L 11.953125 1.757812 L 12.484375 3.625 C 12.585938 3.976562 12.910156 4.21875 13.273438 4.21875 L 16.726562 4.21875 C 17.089844 4.21875 17.414062 3.976562 17.515625 3.625 L 18.046875 1.757812 L 21.5625 1.757812 C 22.144531 1.757812 22.617188 2.230469 22.617188 2.8125 L 22.617188 25.3125 L 7.382812 25.3125 L 7.382812 2.8125 C 7.382812 2.230469 7.855469 1.757812 8.4375 1.757812 Z M 8.4375 1.757812 "/>
</g>
</svg>
