<?xml version="1.0" encoding="UTF-8"?>
<svg xmlns="http://www.w3.org/2000/svg" xmlns:xlink="http://www.w3.org/1999/xlink" width="30px" height="30px" viewBox="0 0 30 30" version="1.1">
<g id="surface1">
<path style=" stroke:none;fill-rule:nonzero;fill:rgb(0%,20.784314%,30.588235%);fill-opacity:1;" d="M 21.914062 4.75 L 6.847656 2.902344 C 5.355469 2.722656 4 3.78125 3.8125 5.273438 L 1.964844 20.339844 C 1.78125 21.832031 2.84375 23.1875 4.335938 23.375 L 19.402344 25.222656 C 20.890625 25.398438 22.246094 24.339844 22.433594 22.851562 L 24.285156 7.785156 C 24.464844 6.292969 23.40625 4.9375 21.914062 4.75 Z M 21.914062 4.75 "/>
<path style=" stroke:none;fill-rule:nonzero;fill:rgb(98.431373%,67.45098%,10.196078%);fill-opacity:1;" d="M 28.125 9.375 L 28.125 20.625 C 28.125 20.875 28.027344 21.113281 27.851562 21.289062 L 22.226562 26.914062 C 22.050781 27.089844 21.8125 27.1875 21.5625 27.1875 L 10.3125 27.1875 C 8.761719 27.183594 7.503906 25.925781 7.5 24.375 L 7.5 9.375 C 7.503906 7.824219 8.761719 6.566406 10.3125 6.5625 L 25.3125 6.5625 C 26.863281 6.566406 28.121094 7.824219 28.125 9.375 Z M 28.125 9.375 "/>
<path style=" stroke:none;fill-rule:nonzero;fill:rgb(100%,100%,100%);fill-opacity:1;" d="M 24.375 16.875 C 24.375 20.5 21.4375 23.4375 17.8125 23.4375 C 14.1875 23.4375 11.25 20.5 11.25 16.875 C 11.25 13.25 14.1875 10.3125 17.8125 10.3125 C 21.4375 10.3125 24.375 13.25 24.375 16.875 Z M 24.375 16.875 "/>
<path style=" stroke:none;fill-rule:nonzero;fill:rgb(98.431373%,67.45098%,10.196078%);fill-opacity:1;" d="M 20.625 15.9375 L 18.75 15.9375 L 18.75 14.0625 C 18.75 13.542969 18.332031 13.125 17.8125 13.125 C 17.292969 13.125 16.875 13.542969 16.875 14.0625 L 16.875 15.9375 L 15 15.9375 C 14.480469 15.9375 14.0625 16.355469 14.0625 16.875 C 14.0625 17.394531 14.480469 17.8125 15 17.8125 L 16.875 17.8125 L 16.875 19.6875 C 16.875 20.207031 17.292969 20.625 17.8125 20.625 C 18.332031 20.625 18.75 20.207031 18.75 19.6875 L 18.75 17.8125 L 20.625 17.8125 C 21.144531 17.8125 21.5625 17.394531 21.5625 16.875 C 21.5625 16.355469 21.144531 15.9375 20.625 15.9375 Z M 20.625 15.9375 "/>
<path style=" stroke:none;fill-rule:nonzero;fill:rgb(66.666667%,68.235294%,69.019608%);fill-opacity:1;" d="M 28.125 18.75 L 28.125 20.625 C 28.125 20.875 28.027344 21.113281 27.851562 21.289062 L 22.226562 26.914062 C 22.050781 27.089844 21.8125 27.1875 21.5625 27.1875 L 19.6875 27.1875 L 19.6875 21.5625 C 19.691406 20.011719 20.949219 18.753906 22.5 18.75 Z M 28.125 18.75 "/>
</g>
</svg>
