<?xml version="1.0" encoding="UTF-8"?>
<svg xmlns="http://www.w3.org/2000/svg" xmlns:xlink="http://www.w3.org/1999/xlink" width="30px" height="30px" viewBox="0 0 30 30" version="1.1">
<g id="surface1">
<path style=" stroke:none;fill-rule:nonzero;fill:rgb(0%,20.784314%,30.588235%);fill-opacity:1;" d="M 21.039062 15.636719 L 21.039062 13.949219 C 21.042969 11.808594 17.804688 11.804688 17.804688 13.914062 C 17.804688 11.742188 14.570312 11.742188 14.570312 13.882812 L 14.570312 5.46875 C 14.574219 4.886719 14.269531 4.347656 13.765625 4.054688 C 13.265625 3.761719 12.644531 3.761719 12.144531 4.054688 C 11.640625 4.34375 11.332031 4.882812 11.335938 5.464844 L 11.328125 17.859375 L 9.328125 15.226562 C 7.765625 13.160156 4.59375 14.449219 6.398438 16.832031 C 9.566406 21.003906 8.996094 23.265625 10.824219 25.355469 C 11.671875 26.324219 12.085938 27.429688 12.074219 28.714844 L 12.066406 29.765625 L 21.078125 29.765625 L 21.070312 28.714844 C 21.058594 27.429688 21.472656 26.320312 22.320312 25.351562 C 23.496094 24.011719 24.140625 22.292969 24.136719 20.511719 L 24.140625 15.640625 C 24.144531 13.394531 21.042969 13.34375 21.039062 15.636719 Z M 21.039062 15.636719 "/>
<path style=" stroke:none;fill-rule:nonzero;fill:rgb(98.431373%,67.45098%,10.196078%);fill-opacity:1;" d="M 9.589844 9.3125 C 9.464844 9.3125 9.347656 9.261719 9.261719 9.175781 C 7.757812 7.679688 7.304688 5.429688 8.113281 3.472656 C 8.921875 1.511719 10.828125 0.234375 12.945312 0.234375 C 15.066406 0.234375 16.972656 1.507812 17.785156 3.464844 C 18.59375 5.421875 18.144531 7.675781 16.644531 9.171875 C 16.460938 9.351562 16.164062 9.351562 15.980469 9.167969 C 15.800781 8.984375 15.800781 8.6875 15.980469 8.507812 C 17.210938 7.277344 17.582031 5.429688 16.917969 3.824219 C 16.253906 2.21875 14.6875 1.171875 12.949219 1.171875 C 11.210938 1.171875 9.644531 2.222656 8.980469 3.828125 C 8.316406 5.433594 8.6875 7.285156 9.921875 8.507812 C 10.054688 8.644531 10.097656 8.84375 10.023438 9.019531 C 9.953125 9.195312 9.78125 9.308594 9.589844 9.3125 Z M 9.589844 9.3125 "/>
<path style=" stroke:none;fill-rule:nonzero;fill:rgb(66.666667%,68.235294%,69.019608%);fill-opacity:1;" d="M 16.867188 13.832031 L 16.867188 15.742188 C 16.871094 15.996094 17.078125 16.203125 17.335938 16.203125 C 17.59375 16.203125 17.800781 15.996094 17.804688 15.742188 L 17.804688 13.914062 C 17.804688 12.683594 16.761719 12.148438 15.859375 12.308594 C 16.421875 12.519531 16.867188 13.027344 16.867188 13.832031 Z M 13.632812 5.382812 L 13.632812 15.742188 C 13.632812 15.996094 13.84375 16.203125 14.101562 16.203125 C 14.355469 16.203125 14.566406 15.996094 14.566406 15.742188 L 14.566406 12.332031 L 14.570312 5.46875 C 14.570312 4.574219 13.847656 3.851562 12.957031 3.847656 C 12.84375 3.847656 12.730469 3.859375 12.621094 3.882812 C 13.230469 4.132812 13.632812 4.722656 13.632812 5.382812 Z M 20.105469 13.867188 L 20.105469 15.742188 C 20.105469 16 20.3125 16.210938 20.574219 16.210938 C 20.832031 16.210938 21.039062 16 21.039062 15.742188 L 21.039062 13.949219 C 21.042969 12.734375 20 12.210938 19.097656 12.367188 C 19.660156 12.574219 20.105469 13.074219 20.105469 13.867188 Z M 8.394531 15.144531 L 11.101562 18.710938 C 11.136719 18.753906 11.191406 18.769531 11.242188 18.753906 C 11.292969 18.738281 11.328125 18.6875 11.328125 18.632812 L 11.328125 17.859375 L 9.328125 15.226562 C 8.703125 14.402344 7.824219 14.113281 7.105469 14.210938 C 7.621094 14.378906 8.070312 14.707031 8.394531 15.144531 Z M 8.394531 15.144531 "/>
<path style=" stroke:none;fill-rule:nonzero;fill:rgb(66.666667%,68.235294%,69.019608%);fill-opacity:1;" d="M 22.242188 13.972656 C 22.78125 14.195312 23.207031 14.722656 23.203125 15.558594 L 23.199219 20.429688 C 23.203125 22.210938 22.558594 23.929688 21.382812 25.269531 C 20.539062 26.238281 20.121094 27.347656 20.132812 28.632812 L 20.140625 29.683594 L 12.066406 29.683594 L 12.066406 29.765625 L 21.078125 29.765625 L 21.070312 28.714844 C 21.058594 27.429688 21.472656 26.320312 22.320312 25.351562 C 23.496094 24.011719 24.140625 22.292969 24.136719 20.511719 L 24.140625 15.640625 C 24.144531 14.347656 23.117188 13.78125 22.242188 13.972656 Z M 22.242188 13.972656 "/>
</g>
</svg>
