<?xml version="1.0" encoding="UTF-8"?>
<svg xmlns="http://www.w3.org/2000/svg" xmlns:xlink="http://www.w3.org/1999/xlink" width="30px" height="30px" viewBox="0 0 30 30" version="1.1">
<g id="surface1">
<path style=" stroke:none;fill-rule:nonzero;fill:rgb(98.431373%,67.45098%,10.196078%);fill-opacity:1;" d="M 6 0 L 24 0 C 27.3125 0 30 2.6875 30 6 L 30 24 C 30 27.3125 27.3125 30 24 30 L 6 30 C 2.6875 30 0 27.3125 0 24 L 0 6 C 0 2.6875 2.6875 0 6 0 Z M 6 0 "/>
<path style=" stroke:none;fill-rule:nonzero;fill:rgb(0%,20.784314%,30.588235%);fill-opacity:1;" d="M 25.367188 14.589844 C 25.179688 14.335938 20.707031 8.308594 15 8.308594 C 9.289062 8.308594 4.820312 14.335938 4.632812 14.589844 C 4.457031 14.835938 4.457031 15.164062 4.632812 15.410156 C 4.820312 15.664062 9.289062 21.691406 15 21.691406 C 20.707031 21.691406 25.179688 15.664062 25.367188 15.410156 C 25.542969 15.164062 25.542969 14.835938 25.367188 14.589844 Z M 15 20.308594 C 10.792969 20.308594 7.152344 16.308594 6.074219 15 C 7.152344 13.691406 10.785156 9.691406 15 9.691406 C 19.203125 9.691406 22.847656 13.691406 23.925781 15 C 22.847656 16.308594 19.214844 20.308594 15 20.308594 Z M 15 20.308594 "/>
<path style=" stroke:none;fill-rule:nonzero;fill:rgb(0%,20.784314%,30.588235%);fill-opacity:1;" d="M 15 10.847656 C 12.710938 10.847656 10.847656 12.710938 10.847656 15 C 10.847656 17.289062 12.710938 19.152344 15 19.152344 C 17.289062 19.152344 19.152344 17.289062 19.152344 15 C 19.152344 12.710938 17.289062 10.847656 15 10.847656 Z M 15 17.769531 C 13.472656 17.769531 12.230469 16.527344 12.230469 15 C 12.230469 13.472656 13.472656 12.230469 15 12.230469 C 16.527344 12.230469 17.769531 13.472656 17.769531 15 C 17.769531 16.527344 16.527344 17.769531 15 17.769531 Z M 15 17.769531 "/>
</g>
</svg>
