<svg xmlns="http://www.w3.org/2000/svg" version="1.1" xmlns:xlink="http://www.w3.org/1999/xlink" width="512" height="512" x="0" y="0" viewBox="0 0 512 512" style="enable-background:new 0 0 512 512" xml:space="preserve" class=""><g><path d="M467 61H45C20.186 61 0 81.186 0 106v300c0 24.814 20.186 45 45 45h422c24.814 0 45-20.186 45-45V106c0-24.814-20.186-45-45-45zM195 391c-72.722 0-135-59.474-135-135 0-74.443 60.557-135 135-135s135 60.557 135 135c0 76.106-62.999 135-135 135zm242-30h-62c-8.291 0-15-6.709-15-15s6.709-15 15-15h62c8.291 0 15 6.709 15 15s-6.709 15-15 15zm0-60h-62c-8.291 0-15-6.709-15-15s6.709-15 15-15h62c8.291 0 15 6.709 15 15s-6.709 15-15 15zm0-60h-62c-8.291 0-15-6.709-15-15s6.709-15 15-15h62c8.291 0 15 6.709 15 15s-6.709 15-15 15zm0-60h-62c-8.291 0-15-6.709-15-15s6.709-15 15-15h62c8.291 0 15 6.709 15 15s-6.709 15-15 15z" fill="#ffffff" opacity="1" data-original="#000000" class=""></path><path d="M195 151c-57.891 0-105 47.109-105 105 0 22.348 7.139 42.99 19.091 60.035 10.616-15.269 24.809-27.42 41.411-35.156C140.971 270.255 135 256.366 135 241c0-33.091 26.909-60 60-60s60 26.909 60 60c0 15.366-5.971 29.255-15.502 39.879 16.602 7.736 30.795 19.887 41.411 35.156C292.861 298.99 300 278.348 300 256c0-57.891-47.109-105-105-105z" fill="#ffffff" opacity="1" data-original="#000000" class=""></path><path d="M195 211c-16.538 0-30 13.462-30 30s13.462 30 30 30 30-13.462 30-30-13.462-30-30-30zM195 301c-27.026 0-51.381 14.251-64.695 37.062C148.195 352.202 170.484 361 195 361s46.805-8.798 64.695-22.938C246.381 315.251 222.026 301 195 301z" fill="#ffffff" opacity="1" data-original="#000000" class=""></path></g></svg>