<svg xmlns="http://www.w3.org/2000/svg" version="1.1" xmlns:xlink="http://www.w3.org/1999/xlink" width="512" height="512" x="0" y="0" viewBox="0 0 66 66" style="enable-background:new 0 0 512 512" xml:space="preserve" class=""><g><path d="M22.1 22.3h5.8V25h-5.8zM26 45.7v10.8h11.8V45.7zm8.7 6.4h-5.8c-.6 0-1-.4-1-1s.4-1 1-1h5.8c.6 0 1 .4 1 1s-.4 1-1 1zM12.2 43.7H24V33H12.2zm3.1-6.8c-.4-.4-.4-1 0-1.4s1-.4 1.4 0l1.3 1.3 1.3-1.3c.4-.4 1-.4 1.4 0s.4 1 0 1.4l-1.3 1.3 1.3 1.3c.4.4.4 1 0 1.4s-1 .4-1.4 0L18 39.6 16.7 41c-.4.4-1 .4-1.4 0s-.4-1 0-1.4l1.3-1.3zM26 43.7h11.8V33H26zm2.9-6.4h1.9v-1.9c0-.6.4-1 1-1s1 .4 1 1v1.9h1.9c.6 0 1 .4 1 1s-.4 1-1 1h-1.9v1.9c0 .6-.4 1-1 1s-1-.4-1-1v-1.9h-1.9c-.6 0-1-.4-1-1s.5-1 1-1z" fill="#ffffff" opacity="1" data-original="#000000" class=""></path><path d="M41 1H9C6.1 1 3.7 3.4 3.7 6.3v53.3c0 3 2.4 5.4 5.3 5.4h32c2.9 0 5.3-2.4 5.3-5.3V6.3C46.3 3.4 43.9 1 41 1zM8.7 25.9v-4.7c0-.6.4-1 1-1h7.8c.6 0 1 .4 1 1v4.7c0 .6-.4 1-1 1H9.7c-.6 0-1-.4-1-1zm31.2 31.6c0 .6-.4 1-1 1H11.2c-.6 0-1-.4-1-1V32c0-.6.4-1 1-1h27.7c.6 0 1 .4 1 1zM20.1 25.9v-4.7c0-.6.4-1 1-1h7.8c.6 0 1 .4 1 1v4.7c0 .6-.4 1-1 1h-7.8c-.5 0-1-.4-1-1zm21.3 0c0 .6-.4 1-1 1h-7.8c-.6 0-1-.4-1-1v-4.7c0-.6.4-1 1-1h7.8c.6 0 1 .4 1 1zm0-9.3c0 .6-.4 1-1 1H9.7c-.6 0-1-.4-1-1V8.1c0-.6.4-1 1-1h30.7c.6 0 1 .4 1 1z" fill="#ffffff" opacity="1" data-original="#000000" class=""></path><path d="M10.7 9.1h28.7v6.6H10.7zM12.2 45.7v10.8H24V45.7zm5.7 9.5h-.3c-.6 0-1-.4-1-1s.4-1 1-1h.3c.6 0 1 .4 1 1s-.4 1-1 1zm-.3-7.8h.3c.6 0 1 .4 1 1s-.4 1-1 1h-.3c-.6 0-1-.4-1-1s.5-1 1-1zm-2.7 2.9h5.8c.6 0 1 .4 1 1s-.4 1-1 1h-5.8c-.6 0-1-.4-1-1s.4-1 1-1zM33.6 22.3h5.8V25h-5.8zM10.7 22.3h5.8V25h-5.8zM59.2 6.8h3.1v-4c0-.6-.5-1-1-1h-11c-.5 0-1 .4-1 1v60.8c0 .5.5 1 1 1h11c.5 0 1-.5 1-1v-4.1h-3.1c-.6 0-1-.4-1-1s.4-1 1-1h3.1v-8.1h-3.1c-.6 0-1-.4-1-1s.4-1 1-1h3.1v-8.1h-3.1c-.6 0-1-.4-1-1s.4-1 1-1h3.1v-8.1h-3.1c-.6 0-1-.4-1-1s.4-1 1-1h3.1v-8.1h-3.1c-.6 0-1-.4-1-1s.4-1 1-1h3.1V8.8h-3.1c-.6 0-1-.4-1-1s.4-1 1-1z" fill="#ffffff" opacity="1" data-original="#000000" class=""></path></g></svg>