<svg xmlns="http://www.w3.org/2000/svg" version="1.1" xmlns:xlink="http://www.w3.org/1999/xlink" width="512" height="512" x="0" y="0" viewBox="0 0 512 512" style="enable-background:new 0 0 512 512" xml:space="preserve" class=""><g><path d="M444.862 109.779 338.221 3.138A10.63 10.63 0 0 0 330.667 0h-224C83.146 0 64 19.135 64 42.667v426.667C64 492.865 83.146 512 106.667 512h298.667c23.52 0 42.666-19.135 42.666-42.667v-352a10.63 10.63 0 0 0-3.138-7.554zm-306.195-3.112h128a10.66 10.66 0 0 1 10.667 10.667 10.66 10.66 0 0 1-10.667 10.667h-128A10.66 10.66 0 0 1 128 117.334a10.66 10.66 0 0 1 10.667-10.667zm156.812 295.604C249.042 448 238.229 448 234.667 448c-13.25 0-18-15.208-22.917-31.5-7.438 15.094-16 31.5-30.417 31.5-7.417 0-16.292-4.885-24.646-12.323-3.979 3.958-7.938 7.427-11.625 10.188a10.664 10.664 0 0 1-14.938-2.136c-3.521-4.708-2.563-11.396 2.146-14.927 3.375-2.542 6.813-5.604 10.188-8.979C133.979 408.125 128 394.792 128 384c0-24.344 19.417-42.667 32-42.667 12.375 0 32 8.688 32 32 0 13.583-9.438 31.156-21.188 46.333 4.354 4.063 8.313 6.76 10.625 7 2.354-1.656 8.833-14.844 11.958-21.177 6.375-12.938 10.583-21.49 19.938-21.49 10.938 0 14.333 11.344 18.667 25.708 1.271 4.26 3.375 11.281 5.229 15.479 7.833-5.292 27.604-22.688 43.292-38.125 4.208-4.115 10.958-4.094 15.083.125 4.125 4.199 4.084 10.949-.125 15.085zM373.333 320H224a10.66 10.66 0 0 1-10.667-10.667A10.66 10.66 0 0 1 224 298.666h149.333A10.66 10.66 0 0 1 384 309.333 10.66 10.66 0 0 1 373.333 320zm0-64H138.667A10.66 10.66 0 0 1 128 245.333a10.66 10.66 0 0 1 10.667-10.667h234.667a10.66 10.66 0 0 1 10.667 10.667A10.662 10.662 0 0 1 373.333 256zm0-64H138.667A10.66 10.66 0 0 1 128 181.333a10.66 10.66 0 0 1 10.667-10.667h234.667a10.66 10.66 0 0 1 10.667 10.667A10.662 10.662 0 0 1 373.333 192zm-10.666-85.333c-11.771 0-21.333-9.573-21.333-21.333V36.417l70.25 70.25h-48.917z" fill="#ffffff" opacity="1" data-original="#000000" class=""></path><path d="M160 362.667c-1.125.708-10.667 8.323-10.667 21.333 0 5.458 3.083 12.313 7.417 18.917 8.167-11.302 13.917-22.781 13.917-29.583 0-10.157-8.896-10.667-10.667-10.667z" fill="#ffffff" opacity="1" data-original="#000000" class=""></path></g></svg>