<svg xmlns="http://www.w3.org/2000/svg" version="1.1" xmlns:xlink="http://www.w3.org/1999/xlink" width="512" height="512" x="0" y="0" viewBox="0 0 512 512" style="enable-background:new 0 0 512 512" xml:space="preserve" class=""><g><path fill-rule="evenodd" d="M236.288 506.206h12.928l.493-78.6a6.924 6.924 0 0 1 13.846.056l-.493 78.544h13.914c5.103 0 9.266-4.163 9.266-9.267V358.211l30.31 60.171c2.869 5.694 9.876 8.006 15.571 5.138 5.695-2.869 8.007-9.876 5.138-15.573L308.65 351.15c-7.34-14.571-9.312-21.016-27.237-21.016H231.85c-17.925 0-19.897 6.445-27.235 21.016l-28.612 56.797c-2.868 5.697-.557 12.703 5.139 15.573 5.694 2.868 12.701.556 15.572-5.138l30.308-60.171V496.94c0 5.104 4.162 9.266 9.266 9.266zM362.061 255.12v-97.905L256 82.949l-106.06 74.266v98.253zM95.862 117.925 256 5.794l160.139 112.131c11.107 7.777 13.832 23.227 6.055 34.332v.002c-7.777 11.106-23.227 13.83-34.333 6.053L256 65.981l-131.86 92.33c-11.107 7.777-26.555 5.052-34.331-6.053l-.002-.002c-7.777-11.104-5.053-26.554 6.055-34.331zM256.63 270.31c12.532 0 22.689 10.85 22.689 24.236 0 13.385-10.156 24.234-22.689 24.234-12.531 0-22.689-10.849-22.689-24.234s10.158-24.236 22.689-24.236zm196.834 83.34 18.647 69.952h-18.647v73.337c0 5.104-4.163 9.267-9.267 9.267h-18.115v-82.604H412.18v82.604h-20.058c-5.103 0-9.266-4.163-9.266-9.267v-73.337h-16.704l16.704-68.242v-35.519l-27.391 63.751C352.65 390.148 345.76 394 339 391.704c-6.727-2.284-10.534-9.714-8.113-16.463l24.618-68.653c19.136-39.925 46.006-35.312 61.991-35.356 13.916-.037 48.565-5.894 63.12 34.692l24.856 69.317c2.41 6.719-1.354 14.166-8.113 16.463-6.885 2.341-13.707-1.696-16.463-8.112l-27.413-63.751zm-35.283-154.444c15.226 0 27.569 8.676 27.569 28.686 0 20.011-12.343 36.232-27.569 36.232-15.224 0-27.566-16.222-27.566-36.232-.001-20.01 12.342-28.686 27.566-28.686zm-350.422 307c-5.103 0-9.266-4.163-9.266-9.267V319.841l-27.391 63.751c-2.756 6.416-9.578 10.452-16.465 8.112-6.758-2.297-10.522-9.744-8.113-16.463l24.618-68.653c6.722-18.742 5.754-25.337 27.351-30.894 23.893-6.143 47.406-5.754 70.605 0 21.315 5.289 20.577 11.885 27.156 30.229l24.858 69.317c2.419 6.749-1.388 14.178-8.113 16.463-6.761 2.297-13.65-1.556-16.466-8.112l-27.412-63.751-.02 177.099c-.002 5.104-4.164 9.267-9.267 9.267h-18.117v-91.988a6.952 6.952 0 0 0-13.902 0v91.988zm26.039-307c15.224 0 27.567 8.676 27.567 28.686 0 20.011-12.343 36.232-27.567 36.232-15.226 0-27.568-16.222-27.568-36.232s12.342-28.686 27.568-28.686z" clip-rule="evenodd" fill="#fbac1a" opacity="1" data-original="#000000" class=""></path></g></svg>