<svg xmlns="http://www.w3.org/2000/svg" version="1.1" xmlns:xlink="http://www.w3.org/1999/xlink" width="512" height="512" x="0" y="0" viewBox="0 0 60 60" style="enable-background:new 0 0 512 512" xml:space="preserve" class=""><g><path d="M18.878 33.727a14.313 14.313 0 0 1 7.213-3.133c-1.6-2.909-3.766-4.421-6.18-4.36-1.711 1.735-2.072 4.343-1.033 7.493ZM19 3v4a1 1 0 0 0 2 0V3a1 1 0 0 0-2 0ZM11 7V3a1 1 0 0 0-2 0v4a1 1 0 0 0 2 0ZM27.907 29.755a9.608 9.608 0 0 1 4.751-2.331 12.065 12.065 0 0 0-9.071-2.3 11.084 11.084 0 0 1 4.32 4.631ZM12.081 36.361a9.62 9.62 0 0 1 4.945-1.881 11.081 11.081 0 0 1-.441-6.313 12.059 12.059 0 0 0-4.504 8.194Z" fill="#fbac1a" opacity="1" data-original="#000000" class=""></path><path d="M55 6h-2v1a3 3 0 0 1-6 0V6h-4v1a3 3 0 0 1-6 0V6h-4v1a3 3 0 0 1-6 0V6h-4v1a3 3 0 0 1-6 0V6h-4v1a3 3 0 0 1-6 0V6H5a3 3 0 0 0-3 3v3h56V9a3 3 0 0 0-3-3Z" fill="#fbac1a" opacity="1" data-original="#000000" class=""></path><path d="M29 3v4a1 1 0 0 0 2 0V3a1 1 0 0 0-2 0ZM51 7V3a1 1 0 0 0-2 0v4a1 1 0 0 0 2 0ZM39 3v4a1 1 0 0 0 2 0V3a1 1 0 0 0-2 0ZM2 47a3 3 0 0 0 3 3h3.4c3.591-4.454 9.754-7.691 16.968-8.681l-3.211-7.393a10.927 10.927 0 0 0-2.921 2.2 1.01 1.01 0 0 1-.913.345 7.522 7.522 0 0 0-6.365 2.764 1 1 0 0 1-.824.434 1.046 1.046 0 0 1-.235-.027 1 1 0 0 1-.757-.843c-.773-5.906 2.9-11.861 8.932-14.482s12.892-1.238 16.679 3.358a1 1 0 0 1 .1 1.128 1.008 1.008 0 0 1-1.018.5 7.518 7.518 0 0 0-6.365 2.764.962.962 0 0 1-.878.432 10.824 10.824 0 0 0-3.6.633l3.461 7.97c.852-.064 1.715-.1 2.589-.1A32.307 32.307 0 0 1 43.4 43.8l.786-1.311a1 1 0 0 1 1.715 1.03l-.707 1.181a21.742 21.742 0 0 1 6.494 5.3H55a3 3 0 0 0 3-3V14H2Zm38.046-23h1.142a3.915 3.915 0 0 1 .425-1.019l-.809-.809a1 1 0 0 1 1.414-1.414l.809.809a3.915 3.915 0 0 1 1.019-.425V20a1 1 0 1 1 2 0v1.142a3.915 3.915 0 0 1 1.019.425l.809-.809a1 1 0 1 1 1.414 1.414l-.809.809A3.915 3.915 0 0 1 48.9 24h1.142a1 1 0 0 1 0 2H48.9a3.915 3.915 0 0 1-.425 1.019l.809.809a1 1 0 1 1-1.414 1.414l-.809-.809a3.915 3.915 0 0 1-1.019.425V30a1 1 0 0 1-2 0v-1.142a3.915 3.915 0 0 1-1.019-.425l-.809.809a1 1 0 0 1-1.414-1.414l.809-.809A3.915 3.915 0 0 1 41.188 26h-1.142a1 1 0 1 1 0-2Z" fill="#fbac1a" opacity="1" data-original="#000000" class=""></path><circle cx="45.046" cy="25" r="2" fill="#fbac1a" opacity="1" data-original="#000000" class=""></circle><path d="M28.64 46.33a.987.987 0 0 1-.4.083 1 1 0 0 1-.918-.6l-1.117-2.573C15.873 44.458 7.772 50.489 7.092 57.982L7.1 58H53c-.426-4.731-3.8-8.881-8.817-11.61l-.949 1.582 1.649 2.473a1 1 0 0 1-1.664 1.11L41.511 49h-8.93l-1.7 2.555a1 1 0 1 1-1.664-1.11l1.7-2.554A2 2 0 0 1 32.581 47h8.9l.9-1.495A30.559 30.559 0 0 0 30.046 43c-.586 0-1.162.029-1.737.059l.849 1.956a1 1 0 0 1-.518 1.315Z" fill="#fbac1a" opacity="1" data-original="#000000" class=""></path></g></svg>