<svg xmlns="http://www.w3.org/2000/svg" version="1.1" xmlns:xlink="http://www.w3.org/1999/xlink" width="512" height="512" x="0" y="0" viewBox="0 0 512 512" style="enable-background:new 0 0 512 512" xml:space="preserve"><g><path d="M506.326 187.024 368.294 75.893a15.216 15.216 0 0 0-19.086 0l-17.564 14.139 91.024 73.285c10.819 8.709 17.024 21.67 17.024 35.56v225.376c0 5.334-.928 10.455-2.617 15.218h59.709c8.404 0 15.218-6.814 15.218-15.218V198.878a15.228 15.228 0 0 0-5.676-11.854z" fill="#00354e" opacity="1" data-original="#000000"></path><path d="M403.581 187.024 265.55 75.893a15.216 15.216 0 0 0-19.086 0L228.9 90.033l91.024 73.284c10.819 8.711 17.024 21.672 17.024 35.561v225.376c0 5.334-.928 10.455-2.617 15.218h59.709c8.403 0 15.217-6.814 15.217-15.218V198.878a15.229 15.229 0 0 0-5.676-11.854z" fill="#00354e" opacity="1" data-original="#000000"></path><path d="M300.837 187.024 162.805 75.893a15.216 15.216 0 0 0-19.086 0L5.675 187.024A15.217 15.217 0 0 0 0 198.878v225.376c0 8.404 6.814 15.218 15.218 15.218h94.776c8.404 0 15.218-6.814 15.218-15.218v-67.907c0-15.463 12.58-28.043 28.043-28.043s28.044 12.58 28.044 28.043v67.907c0 8.404 6.814 15.218 15.218 15.218h94.776c8.404 0 15.218-6.814 15.218-15.218V198.878a15.215 15.215 0 0 0-5.674-11.854z" fill="#00354e" opacity="1" data-original="#000000"></path></g></svg>