<svg xmlns="http://www.w3.org/2000/svg" version="1.1" xmlns:xlink="http://www.w3.org/1999/xlink" width="512" height="512" x="0" y="0" viewBox="0 0 512 512" style="enable-background:new 0 0 512 512" xml:space="preserve" class=""><g><path fill-rule="evenodd" d="M172.571 216.61c35.859 0 69.166 10.914 96.793 29.595l-57.37 41.682c-16.923 12.295-20.713 35.98-8.436 52.923 9.546 13.174 26.007 18.403 40.82 14.301v34.524H12.218c-3.524 0-6.558-1.323-8.953-3.906-2.397-2.583-3.49-5.707-3.226-9.22C6.746 287.082 81.43 216.61 172.571 216.61zm74.533 119.696 13.273-9.643v120.508c0 17.227 14.095 31.322 31.322 31.322h40.113V374.169c0-8.103 6.63-14.734 14.734-14.734H377.8c8.103 0 14.734 6.63 14.734 14.734v104.324h40.113c17.227 0 31.322-14.095 31.322-31.322V326.662l13.273 9.644c9.796 7.099 23.492 4.912 30.59-4.884 7.099-9.796 4.912-23.492-4.884-30.59l-127.542-92.665c-7.484-5.676-18.085-6.073-26.086-.276l-127.922 92.941c-9.796 7.098-11.983 20.794-4.884 30.59 7.098 9.795 20.794 11.982 30.59 4.884zM172.572 33.507c48.314 0 87.48 39.167 87.48 87.48s-39.167 87.48-87.48 87.48-87.48-39.167-87.48-87.48 39.167-87.48 87.48-87.48z" clip-rule="evenodd" fill="#ffffff" opacity="1" data-original="#000000" class=""></path></g></svg>