<svg xmlns="http://www.w3.org/2000/svg" version="1.1" xmlns:xlink="http://www.w3.org/1999/xlink" width="512" height="512" x="0" y="0" viewBox="0 0 609.619 609.619" style="enable-background:new 0 0 512 512" xml:space="preserve" class=""><g><path fill-rule="evenodd" d="M261.265 326.555v-54.43c0-18.037 14.622-32.658 32.658-32.658h21.772c18.037 0 32.658 14.622 32.658 32.658v54.43h32.658c6.012 0 10.886-4.874 10.886-10.886V208.985l-87.088-69.018-87.088 69.072v106.629c0 6.012 4.874 10.886 10.886 10.886h32.658z" clip-rule="evenodd" fill="#fbac1a" opacity="1" data-original="#000000" class=""></path><path d="M304.809 489.845c23.165-16.003 226.179-161.407 192.041-333.429C480.772 76.26 416.317 14.693 335.508 2.303A201.324 201.324 0 0 0 305.343.028a195.848 195.848 0 0 0-196.482 195.894C108.86 350.417 284.79 476.02 304.809 489.845zm-108.86-174.176v-98.323a21.84 21.84 0 0 1-13.716-7.62l-13.956-16.852a21.697 21.697 0 0 1 3.102-30.731l119.605-96.679a22.087 22.087 0 0 1 27.651 0L348.354 89.5v-2.438c0-12.024 9.748-21.772 21.772-21.772h21.772c12.024 0 21.772 9.748 21.772 21.772v55.247l24.581 19.867a21.708 21.708 0 0 1 3.092 30.732l-13.956 16.852a21.77 21.77 0 0 1-13.716 7.62v98.29c0 18.037-14.622 32.658-32.658 32.658H228.607c-18.037-.001-32.658-14.623-32.658-32.659z" fill="#fbac1a" opacity="1" data-original="#000000" class=""></path><g fill-rule="evenodd" clip-rule="evenodd"><path d="M304.809 115.191a10.89 10.89 0 0 1 6.771 2.351l98.638 78.227.185.152a.23.23 0 0 0 .24 0l13.912-16.895L304.94 82.392l-119.877 96.723 13.945 16.808 99.063-78.38a10.889 10.889 0 0 1 6.738-2.352zM483.743 427.468a10.815 10.815 0 0 0-7.392-2.939h-63.215a644.92 644.92 0 0 1-96.048 83.267 21.523 21.523 0 0 1-24.581 0 646.536 646.536 0 0 1-95.95-83.267h-61.691a10.885 10.885 0 0 0-7.359 2.863L0 544.276h609.619zM315.695 261.238h-21.772c-6.012 0-10.886 4.874-10.886 10.886v54.43h43.544v-54.43c0-6.012-4.873-10.886-10.886-10.886zM0 566.048v32.658c0 6.012 4.874 10.886 10.886 10.886h587.847c6.012 0 10.886-4.874 10.886-10.886v-32.658zM391.898 87.062h-21.772v20.041l21.772 17.603z" fill="#fbac1a" opacity="1" data-original="#000000" class=""></path></g></g></svg>