<svg xmlns="http://www.w3.org/2000/svg" version="1.1" xmlns:xlink="http://www.w3.org/1999/xlink" width="512" height="512" x="0" y="0" viewBox="0 0 512 512" style="enable-background:new 0 0 512 512" xml:space="preserve" class=""><g><path fill-rule="evenodd" d="M63.938 173.318V333.73c0 22.931 18.762 41.694 41.694 41.694h53.396V236.307c0-10.787 8.825-19.612 19.613-19.612h41.603c10.787 0 19.612 8.826 19.612 19.612v66.654a64.296 64.296 0 0 1 6.142-.297l48.789.001c13.658-2.958 27.047-7.788 40.158-13.651V173.317l17.669 12.837c13.039 9.449 31.271 6.538 40.72-6.502s6.538-31.271-6.502-40.72L217.056 15.583c-9.963-7.556-24.074-8.084-34.724-.367L12.051 138.933c-13.039 9.449-15.95 27.68-6.501 40.72 9.449 13.039 27.68 15.951 40.72 6.502zm409.784 158.506a8.292 8.292 0 0 1-11.725 0 8.292 8.292 0 0 1 0-11.725l14.159-14.158a8.29 8.29 0 0 1 11.725 0 8.29 8.29 0 0 1 0 11.725zm9.964 43.777a8.292 8.292 0 0 1 0-16.583h20.023a8.292 8.292 0 0 1 0 16.583zm-23.91 37.999a8.29 8.29 0 1 1 11.725-11.725l14.158 14.158a8.292 8.292 0 0 1 0 11.725 8.292 8.292 0 0 1-11.725 0zm-198.946 1.102h-14.833c-23.429 0-43.079-17.005-47.217-39.282a47.79 47.79 0 0 1-.802-8.738c0-24.331 18.339-44.586 41.877-47.626a47.908 47.908 0 0 1 6.142-.394l50.459.001-.001 96.038zm51.626-100.131c36.963-11.225 71.857-33.526 102.042-50.498 4.642-2.61 9.912-2.565 14.509.124 4.596 2.688 7.219 7.261 7.219 12.586v62.188c.46-.022.921-.034 1.386-.034 15.671 0 28.375 12.704 28.375 28.375s-12.704 28.375-28.375 28.375c-.465 0-.927-.012-1.386-.034v59.046c0 5.459-2.769 10.143-7.551 12.775-4.783 2.632-10.221 2.464-14.833-.457-31.042-19.665-63.914-39.359-101.387-48.922zm-16 116.131-.001 71.631h-9.236c-14.534 0-26.388-11.854-26.388-26.388v-45.242z" clip-rule="evenodd" fill="#fbac1a" opacity="1" data-original="#000000" class=""></path></g></svg>