<svg xmlns="http://www.w3.org/2000/svg" version="1.1" xmlns:xlink="http://www.w3.org/1999/xlink" width="512" height="512" x="0" y="0" viewBox="0 0 512 512" style="enable-background:new 0 0 512 512" xml:space="preserve" class=""><g><path d="M329.956 399.834H182.044c-9.425 0-17.067 7.641-17.067 17.067s7.641 17.067 17.067 17.067h147.911c9.425 0 17.067-7.641 17.067-17.067s-7.641-17.067-17.066-17.067zM329.956 346.006H182.044c-9.425 0-17.067 7.641-17.067 17.067s7.641 17.067 17.067 17.067h147.911c9.425 0 17.067-7.641 17.067-17.067s-7.641-17.067-17.066-17.067z" fill="#00354e" opacity="1" data-original="#000000"></path><path d="M472.178 133.907h-54.303V35.132c0-9.425-7.641-17.067-17.067-17.067H111.192c-9.425 0-17.067 7.641-17.067 17.067v98.775H39.822C17.864 133.907 0 151.772 0 173.73v171.702c0 21.958 17.864 39.822 39.822 39.822h54.306v91.614c0 9.425 7.641 17.067 17.067 17.067h289.61c9.425 0 17.067-7.641 17.067-17.067v-91.614h54.306c21.958 0 39.822-17.864 39.822-39.822V173.73c0-21.957-17.864-39.823-39.822-39.823zm-343.92-81.708h255.483v81.708H128.258V52.199zm255.48 407.602H128.262V320.173h255.477l-.001 139.628zm17.07-225.679h-43.443c-9.425 0-17.067-7.641-17.067-17.067s7.641-17.067 17.067-17.067h43.443c9.425 0 17.067 7.641 17.067 17.067s-7.641 17.067-17.067 17.067z" fill="#00354e" opacity="1" data-original="#000000"></path></g></svg>