<svg xmlns="http://www.w3.org/2000/svg" version="1.1" xmlns:xlink="http://www.w3.org/1999/xlink" width="512" height="512" x="0" y="0" viewBox="0 0 511 512" style="enable-background:new 0 0 512 512" xml:space="preserve" class=""><g><path d="M432.29 0H72.18C32.652 0 .5 32.164.5 71.688v44.472h503.465V71.688C503.965 32.163 471.813 0 432.289 0zM130.511 82.25c-11.239 0-20.34-9.113-20.34-20.34 0-11.226 9.101-20.34 20.34-20.34 11.226 0 20.328 9.114 20.328 20.34 0 11.227-9.102 20.34-20.328 20.34zm243.445 0c-11.23 0-20.328-9.113-20.328-20.34 0-11.226 9.098-20.34 20.328-20.34 11.238 0 20.336 9.114 20.336 20.34 0 11.227-9.098 20.34-20.336 20.34zM.5 440.313C.5 479.836 32.652 512 72.18 512h360.11c39.522 0 71.675-32.164 71.675-71.688V147.009H.5zm130.36-66.262 16.925-63.996c2.414-9.121 13.797-12.215 20.48-5.563l46.973 46.66c6.692 6.645 3.68 18.047-5.422 20.516l-15.71 4.266c29.996 34.523 70.386 32.007 70.714 32.082 82.895 0 124.996-100.578 66.782-159.637-38.157-38.688-102.305-37.844-134.07 6.82-4.938 6.938-14.571 8.563-21.512 3.63-6.942-4.938-8.567-14.56-3.63-21.5 42.794-60.184 129.438-63.083 181.176-10.602 23.598 23.925 36.336 55.636 35.875 89.27-.945 67.804-56.832 122.866-124.62 122.866-.321-.086-63.708 2.914-102.848-54.21l-16.059 4.359c-9.101 2.468-17.469-5.84-15.055-14.961zm0 0" fill="#00354e" opacity="1" data-original="#000000" class=""></path></g></svg>