<svg xmlns="http://www.w3.org/2000/svg" version="1.1" xmlns:xlink="http://www.w3.org/1999/xlink" width="512" height="512" x="0" y="0" viewBox="0 0 512 512" style="enable-background:new 0 0 512 512" xml:space="preserve" class=""><g><path fill-rule="evenodd" d="M88.823 231.706v64.937a76.18 76.18 0 0 1 34.399 27.837h85.74v-13.388c0-13.628 11.15-24.779 24.779-24.779h52.563c13.628 0 24.779 11.151 24.779 24.779v175.962h67.462c28.971 0 52.676-23.705 52.676-52.677v-202.67l22.323 16.219c16.474 11.938 39.508 8.26 51.447-8.214 11.938-16.474 8.26-39.508-8.214-51.447L282.276 32.42c-12.587-9.546-30.416-10.213-43.87-.463L23.268 188.264c-16.475 11.938-20.152 34.972-8.214 51.447s34.972 20.152 51.446 8.214zm-28.655 75.347c23.623 0 44.063 13.616 53.909 33.427h142.019l21.135 24.935-12.152 28.548h-21.762l-16.465-22.876-16.465 22.876-16.465-22.876-16.465 22.876h-63.381c-9.846 19.811-30.286 33.427-53.909 33.427-33.23 0-60.169-26.939-60.169-60.169.001-33.23 26.94-60.168 60.17-60.168zM45.587 348.61c10.278 0 18.611 8.332 18.611 18.611 0 10.278-8.332 18.611-18.611 18.611s-18.611-8.333-18.611-18.611c-.001-10.278 8.332-18.611 18.611-18.611zm43.348 89.143a76.193 76.193 0 0 0 34.287-27.79h62.434l8.267-11.487 15.039 20.895v67.682H141.5c-27.838 0-50.808-21.886-52.565-49.3z" clip-rule="evenodd" fill="#fbac1a" opacity="1" data-original="#000000" class=""></path></g></svg>