<svg xmlns="http://www.w3.org/2000/svg" version="1.1" xmlns:xlink="http://www.w3.org/1999/xlink" width="512" height="512" x="0" y="0" viewBox="0 0 32 32" style="enable-background:new 0 0 512 512" xml:space="preserve" fill-rule="evenodd" class=""><g><path d="M16 1C7.721 1 1 7.721 1 16s6.721 15 15 15 15-6.721 15-15S24.279 1 16 1zm8.83 11.706c.717 2.676-.859 5.611-3.536 6.328a1 1 0 0 0 .518 1.932c3.721-.997 5.946-5.057 4.949-8.778a1 1 0 1 0-1.931.518zM9 12v6a1 1 0 0 1-2 0v-2a1 1 0 0 0-2 0v2a3.001 3.001 0 0 0 6 0v-1.171c.313.111.649.171 1 .171.768 0 1.469-.289 2-.765A3.001 3.001 0 0 0 19 14v-2a1 1 0 0 0-2 0v2a1 1 0 0 1-2 0v-2a1 1 0 0 0-.994-1H14a1 1 0 0 0-1 1v2a1 1 0 0 1-2 0v-2a1 1 0 0 0-2 0zm13.025 2a1 1 0 1 1 0 2 1 1 0 0 1 0-2z" fill="#00354e" opacity="1" data-original="#000000" class=""></path></g></svg>