<svg xmlns="http://www.w3.org/2000/svg" version="1.1" xmlns:xlink="http://www.w3.org/1999/xlink" width="512" height="512" x="0" y="0" viewBox="0 0 442 442.482" style="enable-background:new 0 0 512 512" xml:space="preserve"><g transform="matrix(1,0,0,1,30,0)"><path d="M.242 398.25c.028 24.418 19.817 44.203 44.235 44.23h150.699c24.418-.027 44.203-19.812 44.23-44.23v-44.234H.242zm96.352-6h46.465c3.312 0 6 2.684 6 6 0 3.313-2.688 6-6 6H96.594c-3.317 0-6-2.688-6-6 0-3.316 2.683-6 6-6zM121.05 166.293c-20.312 0-36.78 16.465-36.78 36.777s16.464 36.778 36.777 36.778 36.777-16.465 36.777-36.778c-.02-20.3-16.472-36.754-36.773-36.777zM119.824 279.57c-35.883.051-66.101 26.828-70.465 62.446h140.93c-4.363-35.618-34.582-62.395-70.465-62.446zM.242 46.613v2.793h185.223a111.462 111.462 0 0 1 33.883-39.832 44.072 44.072 0 0 0-24.168-7.191H44.48C20.06 2.406.27 22.195.242 46.613zM285.39 0c-41.402-.004-78.515 25.543-93.288 64.223-14.778 38.675-4.149 82.46 26.71 110.062a6.01 6.01 0 0 1 1.489 6.903l-20.63 46.527 53.009-31.371a6.018 6.018 0 0 1 4.742-.594c37.515 10.945 77.969-.996 103.527-30.559 25.559-29.566 31.528-71.32 15.27-106.859C359.965 22.793 324.473 0 285.39 0zm75.7 84.215a5.999 5.999 0 0 1-5.7 4.144h-14.5v76.68c0 3.316-2.687 6-6 6h-98.995c-3.313 0-6-2.684-6-6V88.36h-14.5a5.997 5.997 0 0 1-5.704-4.144 5.998 5.998 0 0 1 2.172-6.707l70-50.961a5.99 5.99 0 0 1 7.063 0l40.965 29.82V45.742c0-3.316 2.687-6 6-6s6 2.684 6 6v19.363l17.035 12.399a6.004 6.004 0 0 1 2.172 6.71zm0 0" fill="#00354e" opacity="1" data-original="#000000"></path><path d="M233.824 76.36h2.07c3.313 0 6 2.683 6 6v76.68h21.016v-22.567c0-3.313 2.688-6 6-6h32.961c3.313 0 6 2.687 6 6v22.566h21.016V82.36c0-3.316 2.687-6 6-6h2.066l-51.562-37.543zm0 0" fill="#00354e" opacity="1" data-original="#000000"></path><path d="M274.91 142.473h20.961v16.562h-20.96zM186.586 248.434a5.998 5.998 0 0 1-5.031-2.73 6 6 0 0 1-.457-5.704l26.5-59.766c-31.715-30.77-42.418-77.293-27.332-118.828H.242v280.61h37.024c4.37-42.313 40.023-74.47 82.558-74.47 42.54 0 78.188 32.157 82.563 74.47h37.02V218.14l-49.766 29.457a6.006 6.006 0 0 1-3.055.836zm-65.535 3.414c-26.942 0-48.781-21.836-48.781-48.778 0-26.941 21.84-48.777 48.777-48.777 26.941 0 48.781 21.84 48.777 48.777-.027 26.926-21.847 48.746-48.773 48.778zm0 0" fill="#00354e" opacity="1" data-original="#000000"></path></g></svg>