<svg xmlns="http://www.w3.org/2000/svg" version="1.1" xmlns:xlink="http://www.w3.org/1999/xlink" width="512" height="512" x="0" y="0" viewBox="0 0 609.67 609.67" style="enable-background:new 0 0 512 512" xml:space="preserve" class=""><g><path fill-rule="evenodd" d="M489.885 21.775h-43.548c-6.013 0-10.887 4.874-10.887 10.887V54.98l65.322 41.37V32.661c0-6.012-4.875-10.886-10.887-10.886z" clip-rule="evenodd" fill="#ffffff" opacity="1" data-original="#000000" class=""></path><path d="M65.294 218.012v369.884c0 12.025 9.749 21.774 21.774 21.774h435.478c12.025 0 21.774-9.749 21.774-21.774V218.012L304.806 63.972zm278.466 14.153a84.83 84.83 0 0 1 73.106-24.321 22.492 22.492 0 0 1 18.094 15.34 23.832 23.832 0 0 1-5.563 24.583l-26.129 26.379c-5.514 5.616-5.514 14.612 0 20.228 5.508 5.311 14.23 5.311 19.738 0l26.129-26.379a23.56 23.56 0 0 1 24.365-5.727 22.634 22.634 0 0 1 15.427 18.443 86.411 86.411 0 0 1-24.082 73.422 85.06 85.06 0 0 1-76.318 23.788l-29.231 29.395 81.053 81.826c14.477 14.076 15.891 36.847 3.266 52.606a37.711 37.711 0 0 1-55.621 2.275l-82.088-82.871-78.865 79.616a47.53 47.53 0 0 1-68.294-.066 48.348 48.348 0 0 1 .141-68.587l78.93-79.692-18.508-18.649-3.266 3.266a38.593 38.593 0 0 1-27.729 11.769 38.625 38.625 0 0 1-27.838-11.747l-20.805-21.055c-15.232-15.488-15.232-40.329 0-55.817l3.419-3.451-16.57-16.722c-9.012-9.17-9.012-23.871 0-33.042l20.533-20.685a23.098 23.098 0 0 1 16.505-6.902 23.038 23.038 0 0 1 16.494 6.913l16.33 16.613 3.266-3.342a38.836 38.836 0 0 1 27.86-11.616 38.858 38.858 0 0 1 27.827 11.562l20.881 21.077a39.476 39.476 0 0 1 0 55.85l-3.451 3.484 18.508 18.638 29.068-29.395a86.697 86.697 0 0 1 23.418-77.007z" fill="#ffffff" opacity="1" data-original="#000000" class=""></path><g fill-rule="evenodd" clip-rule="evenodd"><path d="m306.527 354.066 37.451 37.81 33.368-33.597a10.822 10.822 0 0 1 10.615-2.831 63.145 63.145 0 0 0 61.413-16.635 64.645 64.645 0 0 0 18.018-55.001l-.784-.915a1.981 1.981 0 0 0-1.992.392l-26.129 26.379c-14.181 13.164-36.24 12.733-49.896-.975s-14.002-35.769-.783-49.899l26.129-26.368c.533-.635.69-1.505.414-2.286-.054 0-.773-.773-.838-.784a62.903 62.903 0 0 0-54.271 18.138 64.854 64.854 0 0 0-16.516 62.241 10.888 10.888 0 0 1-2.754 10.473zM604.404 200.32l-7.12 12.313a10.89 10.89 0 0 1-15.318 3.713L316.564 45.617a22.165 22.165 0 0 0-23.516 0L27.483 216.248a10.887 10.887 0 0 1-15.406-3.865l-6.902-12.444a10.888 10.888 0 0 1 3.691-14.48L299.036 1.634a11.007 11.007 0 0 1 11.54 0l290.235 184.055a10.885 10.885 0 0 1 3.593 14.631zM260.801 301.068a17.693 17.693 0 0 0 0-25.04l-20.936-21.132a17.203 17.203 0 0 0-12.313-5.15 17.221 17.221 0 0 0-12.313 5.15l-10.887 10.996c-.087.098-.12.229-.207.316s-.196.109-.283.185l-37.168 37.527c-.185.218-.261.501-.468.708-.21.153-.428.295-.653.425l-10.397 10.495c-6.873 6.983-6.873 18.188 0 25.171l20.892 21.088a17.072 17.072 0 0 0 12.313 5.247 17.028 17.028 0 0 0 12.259-5.193l60.129-60.716zM181.12 258.359l-16.548-16.788a1.38 1.38 0 0 0-1.023-.435 1.393 1.393 0 0 0-1.034.457l-20.522 20.685a1.69 1.69 0 0 0 0 2.396l16.428 16.581zM234.738 358.334l168.748 170.403a16.332 16.332 0 0 0 23.548-1.089c5.211-7.161 4.278-17.082-2.177-23.146L257.416 335.438zM174.348 487.54a26.592 26.592 0 0 0 37.211 37.996l79.094-79.823-37.451-37.789z" fill="#ffffff" opacity="1" data-original="#000000" class=""></path></g></g></svg>