<svg xmlns="http://www.w3.org/2000/svg" version="1.1" xmlns:xlink="http://www.w3.org/1999/xlink" width="512" height="512" x="0" y="0" viewBox="0 0 512 512" style="enable-background:new 0 0 512 512" xml:space="preserve"><g><path d="M499.717 232.481c-3.342 10.048-12.342 16.539-22.931 16.539h-31.785v-15.567c0-8.646-3.905-16.444-10.828-21.623L272.175 90.653c-9.66-7.226-22.688-7.226-32.348 0L77.829 211.831c-6.923 5.179-10.828 12.976-10.828 21.623v15.566H35.215c-10.589 0-19.589-6.491-22.931-16.539-3.343-10.048-.024-20.636 8.456-26.979L229.276 49.51c8.045-6.018 17.385-9.027 26.724-9.027s18.679 3.009 26.724 9.027l208.537 155.992c8.48 6.343 11.798 16.931 8.456 26.979zm-68.716.972v211.541c0 14.606-11.918 26.523-26.524 26.523H107.524C92.917 471.517 81 459.602 81 444.994v-211.54c0-4.234 1.824-7.876 5.214-10.412l161.997-121.179c4.689-3.508 10.888-3.508 15.577 0L425.786 223.04c3.39 2.536 5.214 6.179 5.214 10.412zm-245.034-16.289c0 38.678 31.355 70.033 70.033 70.033s70.033-31.355 70.033-70.033-31.355-70.033-70.033-70.033-70.033 31.355-70.033 70.033zm-8.039 159.492h-39.814v69.48h39.814zm65.319-10.576h-39.814v80.056h39.814zm65.319-19.906h-39.814v99.962h39.814zm65.319-36.703h-39.814v136.665h39.814zm-6.43-70.356-26.982 5.443a6.973 6.973 0 0 0-5.469 8.203 6.973 6.973 0 0 0 8.203 5.469l7.303-1.473a272.226 272.226 0 0 1-89.313 64.632 272.11 272.11 0 0 1-120.216 23.84 6.977 6.977 0 0 0-.437 13.946 286.096 286.096 0 0 0 126.396-25.043 286.075 286.075 0 0 0 92.635-66.634l-.571 5.519a6.982 6.982 0 0 0 13.89 1.422l2.873-27.776c.472-4.619-3.692-8.47-8.312-7.547zm-90.391-12.654c-8.285 0-15 6.716-15 15s6.716 15 15 15 15-6.715 15-15-6.716-15-15-15zm-42.13-18.398c8.393 0 15.196-6.803 15.196-15.196s-6.803-15.196-15.196-15.196-15.196 6.803-15.196 15.196 6.803 15.196 15.196 15.196zm-14.773 50.272a6.997 6.997 0 0 0 9.871-.684l62.489-71.786a6.996 6.996 0 1 0-10.555-9.187l-62.489 71.786a6.996 6.996 0 0 0 .684 9.871z" fill="#fbac1a" opacity="1" data-original="#000000"></path></g></svg>