<svg style='background: black' xmlns="http://www.w3.org/2000/svg" xmlns:xlink="http://www.w3.org/1999/xlink" version="1.1" width="512" height="512" x="0" y="0" viewBox="0 0 32 32" style="enable-background:new 0 0 512 512" xml:space="preserve" class=""><g><path d="M15.22 13.09a2.915 2.915 0 1 0 2.91 2.92 2.923 2.923 0 0 0-2.91-2.92z" fill="#ede9e9" opacity="1" data-original="#000000" class=""/><path d="M16 1a15 15 0 1 0 15 15A15.005 15.005 0 0 0 16 1zm3.5 19.12a1.603 1.603 0 0 0-.24.87 1.627 1.627 0 0 0 .24.87H8.92A1.92 1.92 0 0 1 7 19.94V12.6a1.914 1.914 0 0 1 1.92-1.92h2.5a.188.188 0 0 0 .16-.11l.47-.93a1.943 1.943 0 0 1 1.71-1.07h2.91a1.937 1.937 0 0 1 1.72 1.06l.47.95a.182.182 0 0 0 .15.1h2.51a1.912 1.912 0 0 1 1.91 1.92v5.32a1.693 1.693 0 0 0-.87-.24 1.755 1.755 0 0 0-1.73 1.58 1.718 1.718 0 0 0-1.33.86zm4.63 1.74h-.7v.7a.87.87 0 0 1-1.74 0v-.7H21a.87.87 0 1 1 0-1.74h.69v-.7a.865.865 0 0 1 1.64-.39.756.756 0 0 1 .1.39v.7h.7a.87.87 0 1 1 0 1.74z" fill="#ede9e9" opacity="1" data-original="#000000" class=""/></g></svg>